<svg xmlns="http://www.w3.org/2000/svg" width="2088" height="502" viewBox="0 0 2088 502">
<g>
<path d="M 1577.82 367.96 C1564.83,370.07 1550.82,368.88 1537.54,364.54 C1509.01,355.23 1486.90,333.60 1477.68,305.97 C1469.08,280.19 1471.49,247.54 1483.64,225.03 C1493.76,206.29 1511.41,189.54 1527.86,183.06 C1541.56,177.65 1550.28,176.00 1565.04,176.00 C1579.06,176.00 1583.37,176.67 1595.00,180.65 C1606.20,184.48 1614.16,189.42 1621.92,197.36 C1624.90,200.41 1627.71,202.68 1628.17,202.39 C1628.63,202.11 1629.00,199.71 1629.00,197.06 C1629.00,187.43 1634.21,180.69 1642.64,179.43 C1645.19,179.04 1650.67,178.99 1654.81,179.30 C1663.66,179.97 1666.48,181.62 1669.75,188.02 L 1672.00 192.42 L 1671.98 271.96 C1671.96,348.36 1671.88,351.66 1670.03,355.50 C1668.98,357.70 1667.52,360.21 1666.80,361.07 C1663.07,365.58 1645.56,366.60 1638.01,362.75 C1632.74,360.07 1629.07,353.76 1629.03,347.31 C1629.01,345.00 1628.55,342.84 1627.99,342.50 C1627.44,342.15 1624.40,344.32 1621.24,347.31 C1609.93,358.03 1594.88,365.19 1577.82,367.96 ZM 1938.43 366.29 C1906.48,373.61 1870.66,362.09 1848.89,337.48 C1837.55,324.66 1829.58,306.99 1826.96,288.83 C1825.55,279.13 1826.11,258.87 1828.03,250.00 C1835.42,215.71 1860.49,188.49 1893.43,178.97 C1902.87,176.25 1905.01,176.00 1919.20,176.00 C1934.50,176.00 1934.83,176.05 1946.80,179.93 C1959.80,184.16 1965.93,187.85 1975.79,197.38 C1981.91,203.31 1982.47,203.03 1983.52,193.57 C1984.79,182.06 1988.43,179.59 2004.18,179.54 C2015.79,179.50 2017.88,180.28 2022.44,186.38 C2024.48,189.11 2024.50,190.08 2024.74,271.32 L 2024.99 353.50 L 2022.71 357.50 C2019.48,363.20 2015.39,364.89 2004.74,364.95 C1990.41,365.03 1984.00,360.71 1984.00,350.98 C1984.00,347.57 1982.93,343.90 1981.41,342.13 C1981.24,341.93 1977.75,344.63 1973.65,348.13 C1961.30,358.68 1953.05,362.93 1938.43,366.29 ZM 901.21 364.76 C891.46,370.24 874.04,365.18 857.84,352.15 C838.06,336.23 817.44,306.98 805.57,278.00 C804.11,274.42 802.53,270.60 802.07,269.50 C798.45,260.94 797.92,248.04 800.94,242.11 C803.95,236.22 806.86,234.89 819.92,233.48 C836.10,231.73 842.79,229.03 850.98,220.92 C856.67,215.30 859.37,210.52 861.50,202.32 C865.66,186.36 861.17,169.71 849.99,159.61 C841.31,151.76 831.69,148.95 811.19,148.27 C788.75,147.51 778.63,150.18 769.17,159.32 C764.58,163.74 762.39,167.37 759.38,175.50 C757.65,180.18 757.50,186.04 757.02,267.00 L 756.50 353.50 L 754.23 357.14 C750.73,362.77 746.21,364.50 735.00,364.50 C723.72,364.50 719.49,362.86 715.58,356.95 L 713.00 353.04 L 713.01 267.27 C713.02,186.38 713.13,180.96 714.96,172.00 C717.38,160.10 718.31,157.23 722.59,148.38 C728.67,135.80 740.73,124.59 755.00,118.24 C769.89,111.62 781.93,109.61 807.00,109.56 C835.18,109.51 846.21,111.43 863.50,119.41 C884.17,128.95 897.20,143.98 904.23,166.39 C906.17,172.59 906.46,175.68 906.44,190.50 C906.42,205.35 906.13,208.45 904.13,215.00 C900.42,227.13 895.03,236.85 886.50,246.83 C881.06,253.20 864.98,263.00 854.20,266.53 C850.43,267.76 849.00,268.74 849.00,270.07 C849.00,274.34 862.62,295.12 872.48,305.89 C877.77,311.67 889.63,320.39 897.96,324.62 C906.49,328.95 909.52,332.22 910.82,338.47 C912.94,348.69 908.58,360.62 901.21,364.76 ZM 1052.50 366.02 C1044.67,367.88 1023.23,369.27 1016.00,368.39 C992.03,365.44 970.81,355.87 954.37,340.60 C941.61,328.75 934.58,316.56 929.80,298.00 C927.95,290.84 927.60,286.66 927.55,271.50 C927.51,255.83 927.80,252.33 929.82,244.50 C933.62,229.69 938.68,220.04 948.76,208.36 C959.70,195.67 973.05,186.39 987.13,181.69 C1003.31,176.28 1005.01,176.00 1021.73,176.00 C1035.55,176.00 1039.10,176.34 1047.26,178.46 C1059.99,181.77 1065.48,184.04 1074.08,189.55 C1100.64,206.58 1115.98,235.95 1114.86,267.68 C1114.56,276.08 1114.13,278.35 1112.41,280.68 C1111.79,281.52 1111.31,282.23 1110.72,282.84 C1107.35,286.28 1100.44,286.27 1044.01,286.16 L 1037.70 286.15 L 970.75 286.02 L 971.42 290.21 C973.77,304.94 987.15,319.44 1005.50,327.15 C1009.96,329.02 1022.60,331.00 1030.11,331.00 C1045.09,331.00 1056.45,327.61 1068.50,319.54 C1077.02,313.84 1078.81,313.00 1082.49,313.00 C1089.42,313.00 1095.16,317.34 1101.31,327.21 C1105.83,334.48 1101.23,342.93 1088.00,351.69 C1076.32,359.43 1070.75,361.68 1052.50,366.02 ZM 1176.52 363.42 C1169.57,366.32 1156.36,365.93 1150.21,362.66 C1148.39,361.69 1146.03,359.46 1144.96,357.70 C1143.09,354.63 1143.01,352.30 1143.00,301.82 C1143.00,245.78 1143.23,242.49 1148.05,230.00 C1149.21,226.98 1150.43,223.60 1150.76,222.50 C1152.78,215.63 1164.23,201.22 1172.89,194.63 C1183.51,186.56 1192.17,182.54 1207.88,178.38 C1216.31,176.15 1219.54,175.83 1234.00,175.82 C1248.92,175.80 1251.41,176.06 1260.00,178.49 C1265.22,179.97 1270.52,181.42 1271.76,181.71 C1273.01,182.00 1274.27,182.64 1274.57,183.12 C1274.87,183.60 1275.74,184.00 1276.51,184.00 C1277.27,184.00 1280.06,185.44 1282.70,187.20 C1298.14,197.49 1308.43,209.96 1314.81,226.13 C1315.38,227.57 1316.80,233.42 1317.96,239.13 C1319.98,249.03 1320.06,251.87 1319.79,302.07 L 1319.50 354.65 L 1316.84 358.67 C1313.60,363.55 1308.33,365.36 1297.64,365.25 C1286.90,365.14 1280.30,361.60 1278.14,354.80 C1277.50,352.78 1276.89,332.05 1276.58,301.50 C1276.01,246.95 1275.90,245.82 1270.03,235.55 C1262.61,222.58 1249.46,215.99 1231.04,216.01 C1211.62,216.04 1199.37,223.29 1191.01,239.70 C1186.69,248.18 1186.02,257.26 1186.01,307.28 C1186.00,344.41 1185.77,351.62 1184.46,354.75 C1182.50,359.45 1180.30,361.85 1176.52,363.42 ZM 1445.50 365.97 C1438.22,367.78 1415.67,368.20 1409.00,366.65 C1388.00,361.76 1376.12,351.75 1368.46,332.50 C1364.82,323.35 1364.72,321.97 1364.11,270.50 C1363.77,242.45 1363.14,218.94 1362.69,218.25 C1362.14,217.40 1358.94,217.00 1352.69,217.00 C1338.14,216.99 1333.98,213.38 1333.21,200.08 C1332.84,193.74 1333.14,191.47 1334.84,187.63 C1337.66,181.26 1342.45,179.05 1353.55,179.02 C1358.45,179.01 1362.07,178.53 1362.80,177.80 C1363.63,176.97 1364.01,171.67 1364.02,160.55 C1364.06,139.04 1365.15,134.96 1372.38,129.56 C1374.69,127.84 1376.88,127.45 1385.82,127.21 C1398.89,126.85 1402.33,128.19 1405.75,134.96 C1407.85,139.13 1408.00,140.70 1408.00,158.65 C1408.00,172.61 1408.33,178.09 1409.21,178.63 C1409.87,179.04 1416.74,179.27 1424.46,179.14 C1441.32,178.85 1448.35,180.01 1452.21,183.70 C1453.74,185.17 1455.00,187.16 1455.00,188.13 C1455.00,189.09 1455.45,190.16 1456.00,190.50 C1457.87,191.65 1457.16,204.67 1454.99,209.30 C1451.57,216.56 1450.03,217.00 1427.60,217.00 L 1408.00 217.00 L 1408.00 313.77 L 1411.25 318.61 C1413.04,321.26 1416.45,324.80 1418.83,326.46 C1422.76,329.21 1423.86,329.49 1430.83,329.43 C1435.05,329.40 1442.00,329.00 1446.28,328.54 C1453.68,327.75 1454.18,327.82 1456.63,330.10 C1461.38,334.54 1463.44,339.83 1463.47,347.70 C1463.50,354.76 1463.42,354.99 1459.55,358.95 C1457.37,361.18 1454.88,363.00 1454.00,363.00 C1453.12,363.00 1451.97,363.39 1451.45,363.86 C1450.93,364.34 1448.25,365.29 1445.50,365.97 ZM 1914.50 328.30 C1919.02,329.36 1933.96,328.90 1939.17,327.54 C1959.96,322.13 1975.68,304.95 1979.51,283.46 C1981.36,273.07 1981.34,267.61 1979.43,259.34 C1973.81,235.13 1958.43,220.63 1934.52,217.00 C1921.05,214.96 1904.89,217.75 1895.00,223.82 C1885.64,229.57 1875.74,242.51 1872.49,253.22 C1868.48,266.49 1869.92,285.65 1875.90,298.50 C1882.69,313.08 1897.13,324.23 1914.50,328.30 ZM 1559.00 328.34 C1560.38,328.60 1567.12,328.75 1574.00,328.66 L 1586.50 328.50 L 1595.00 324.23 C1618.81,312.27 1630.90,288.39 1626.40,262.20 C1622.74,240.89 1609.67,225.14 1590.50,218.91 C1577.82,214.80 1557.00,216.18 1544.78,221.96 C1534.60,226.78 1524.41,239.13 1519.88,252.16 C1517.13,260.06 1516.23,275.52 1518.00,284.33 C1521.45,301.49 1532.94,316.56 1548.16,323.86 C1552.75,326.06 1557.62,328.07 1559.00,328.34 ZM 1740.36 363.75 C1733.74,365.70 1724.85,366.07 1719.65,364.61 C1712.94,362.74 1709.29,358.82 1708.02,352.11 C1707.42,348.93 1707.01,328.10 1707.03,301.11 C1707.07,246.70 1707.88,238.07 1714.50,221.50 C1718.36,211.86 1722.59,205.53 1730.36,197.75 C1739.07,189.04 1749.51,183.25 1764.04,179.06 C1774.64,176.00 1776.63,175.75 1790.50,175.68 C1804.83,175.61 1805.73,175.72 1810.61,178.25 C1817.92,182.03 1819.35,185.47 1818.77,197.88 C1818.27,208.33 1817.08,211.58 1812.41,215.24 C1809.78,217.30 1808.62,217.48 1799.51,217.22 C1788.38,216.91 1778.78,218.33 1772.19,221.24 C1767.03,223.52 1759.02,231.39 1756.41,236.72 C1752.22,245.29 1751.92,248.36 1750.98,292.50 C1749.76,349.99 1749.84,354.14 1747.97,357.05 C1747.66,357.53 1747.29,357.98 1746.86,358.63 C1745.00,361.45 1743.10,362.95 1740.36,363.75 ZM 972.36 253.49 C972.86,254.81 979.12,255.00 1021.27,255.00 C1054.73,255.00 1069.93,254.67 1070.69,253.91 C1073.61,250.99 1065.85,234.36 1057.72,226.09 C1052.17,220.46 1047.95,217.91 1039.14,214.88 C1031.17,212.13 1013.20,212.24 1004.72,215.08 C995.68,218.11 988.73,222.40 983.61,228.09 C976.53,235.97 970.69,249.15 972.36,253.49 Z" fill="rgb(20,27,39)"/>
<path d="M 347.41 450.94 C345.50,452.62 343.82,454.00 343.69,454.00 C342.98,454.00 338.26,450.28 336.75,448.53 C335.78,447.41 332.41,442.92 329.25,438.55 C326.09,434.18 321.73,428.82 319.57,426.63 C317.41,424.45 315.10,421.05 314.44,419.08 C313.60,416.58 312.17,414.99 309.71,413.79 C306.34,412.15 302.00,407.31 302.00,405.19 C302.00,404.64 299.85,402.64 297.22,400.75 C294.50,398.80 290.51,394.40 287.97,390.56 C285.51,386.85 282.38,383.22 281.00,382.50 C279.62,381.78 276.68,378.11 274.46,374.35 C271.07,368.60 269.79,367.29 266.46,366.19 C261.24,364.46 210.23,362.73 204.18,364.08 C198.61,365.32 184.41,373.81 183.10,376.69 C180.80,381.73 167.50,384.94 155.71,383.28 C147.99,382.20 148.28,382.36 134.68,371.90 C130.99,369.06 127.56,363.54 125.05,356.39 C122.66,349.60 119.43,345.91 114.26,344.06 C99.97,338.95 95.70,335.29 89.78,323.12 L 85.59 314.50 L 85.66 295.25 C85.74,276.18 85.76,275.96 88.37,272.02 C91.69,267.01 97.34,264.09 105.85,263.01 C109.51,262.55 115.65,261.24 119.50,260.11 C123.35,258.98 127.78,258.05 129.34,258.03 C131.24,258.01 132.35,257.39 132.66,256.18 C132.93,255.17 134.71,253.78 136.64,253.09 C138.56,252.39 141.63,250.51 143.45,248.91 C145.28,247.30 149.26,244.89 152.30,243.55 C155.33,242.20 158.09,240.67 158.42,240.13 C158.75,239.59 160.34,238.87 161.94,238.51 C163.55,238.16 165.40,237.22 166.07,236.42 C166.73,235.62 169.57,233.82 172.39,232.42 C175.20,231.01 178.87,228.54 180.55,226.93 C182.64,224.92 184.61,224.00 186.85,224.00 C191.50,224.00 195.20,221.76 198.57,216.91 C201.91,212.08 202.23,206.94 199.97,194.50 C198.42,186.01 198.37,175.38 199.82,164.00 C202.29,144.64 202.81,141.29 203.98,137.00 C205.80,130.33 212.84,113.82 214.85,111.51 C217.77,108.15 222.00,101.47 222.00,100.20 C222.00,99.55 223.35,97.81 225.00,96.34 C226.65,94.87 228.00,93.16 228.00,92.54 C228.00,90.53 236.72,82.71 238.05,83.53 C238.97,84.10 239.12,83.63 238.65,81.74 C238.09,79.52 238.66,78.72 242.89,75.68 C245.57,73.75 249.28,70.28 251.14,67.98 C252.99,65.68 256.52,62.63 259.00,61.21 C261.48,59.79 265.19,57.14 267.25,55.31 C269.32,53.49 271.39,52.00 271.87,52.00 C272.34,52.00 274.39,50.68 276.41,49.07 C278.44,47.46 281.54,45.82 283.30,45.44 C285.06,45.05 287.57,43.90 288.88,42.87 C290.20,41.84 292.13,41.00 293.18,41.00 C294.24,41.00 296.31,40.38 297.80,39.62 C299.28,38.86 302.08,37.94 304.00,37.58 C305.92,37.22 310.65,36.28 314.50,35.50 C333.03,31.73 338.90,31.00 350.49,31.00 C359.35,31.00 364.31,31.47 367.72,32.63 C370.35,33.52 376.38,35.05 381.12,36.02 C385.86,36.99 390.59,38.24 391.62,38.79 C392.65,39.33 397.16,40.77 401.64,41.97 C407.56,43.56 410.54,44.96 412.58,47.08 C414.32,48.90 416.40,50.00 418.08,50.00 C419.72,50.00 421.72,51.02 423.15,52.58 C427.79,57.65 430.50,60.00 431.73,60.00 C432.41,60.00 434.10,61.78 435.47,63.96 C437.28,66.82 439.02,68.20 441.74,68.96 C446.01,70.14 454.40,77.54 455.54,81.12 C455.95,82.43 457.23,84.17 458.39,84.98 C464.66,89.39 468.17,93.81 473.14,103.59 C476.09,109.40 479.40,115.12 480.50,116.30 C481.87,117.77 482.54,119.98 482.63,123.31 C482.77,128.07 483.38,129.90 489.21,142.90 C491.60,148.24 492.06,150.55 491.97,156.90 C491.92,161.08 492.54,168.12 493.35,172.54 C495.18,182.47 493.98,207.76 491.40,213.80 C488.84,219.79 487.02,226.28 487.01,229.50 C487.00,231.15 486.11,233.94 485.04,235.70 C483.97,237.46 482.42,241.29 481.59,244.20 C480.77,247.12 479.22,252.60 478.14,256.40 C476.15,263.39 476.26,266.50 478.48,265.65 C479.15,265.39 480.97,266.27 482.52,267.60 C485.59,270.24 487.27,270.12 492.65,266.86 C500.42,262.17 530.03,254.92 534.49,256.63 C535.13,256.88 536.86,256.62 538.33,256.07 C540.26,255.33 541.00,254.34 541.00,252.50 C541.00,250.71 541.73,249.67 543.46,249.01 C545.70,248.16 545.83,247.81 544.86,245.04 C543.69,241.68 541.09,239.56 533.31,235.64 C528.02,232.97 523.00,227.63 523.00,224.66 C523.00,222.77 524.11,222.51 525.64,224.04 C526.32,224.72 527.53,224.75 529.16,224.13 C533.28,222.56 539.22,223.46 543.75,226.33 C546.09,227.81 548.00,229.45 548.00,229.97 C548.00,230.48 549.64,231.36 551.64,231.91 C554.14,232.60 557.53,235.25 562.49,240.39 C569.12,247.26 569.80,248.37 570.99,254.18 C571.70,257.66 573.19,262.18 574.31,264.23 C576.26,267.81 576.27,268.04 574.57,269.92 C572.87,271.80 571.52,272.09 558.24,273.45 C555.90,273.69 553.54,274.16 553.01,274.50 C551.67,275.32 541.27,278.00 539.41,278.00 C538.58,278.00 535.03,280.14 531.51,282.75 C527.99,285.36 522.56,289.30 519.46,291.49 C516.36,293.69 512.24,297.62 510.32,300.24 C506.84,304.99 505.26,305.86 503.44,304.04 C502.84,303.44 501.93,303.43 500.99,304.02 C499.68,304.85 499.72,305.35 501.25,308.06 C503.23,311.57 503.49,314.52 501.96,316.29 C501.39,316.96 499.55,319.41 497.88,321.75 C497.05,322.90 496.57,323.76 495.88,324.40 C493.65,326.49 489.32,326.31 464.50,326.50 C454.24,326.58 446.08,327.11 443.91,327.84 C436.59,330.31 429.95,340.90 434.78,342.43 C435.76,342.74 437.05,344.30 437.65,345.89 L 438.74 348.78 L 467.12 348.56 L 467.45 348.56 C490.62,348.38 496.77,348.33 498.41,351.03 C499.00,352.00 499.00,353.33 499.00,355.15 L 499.00 355.22 C499.00,357.37 499.44,359.95 499.98,360.96 C501.97,364.68 499.47,365.04 475.89,364.38 C463.58,364.04 444.95,363.72 434.50,363.68 C416.47,363.60 415.24,363.72 410.36,365.99 C405.45,368.28 405.19,368.60 404.71,372.92 C404.30,376.52 403.47,378.08 400.71,380.48 C398.79,382.14 396.45,385.18 395.50,387.24 C394.55,389.30 391.92,392.90 389.64,395.24 C387.36,397.57 385.02,400.39 384.43,401.49 C380.24,409.32 376.62,413.77 373.39,415.02 C372.23,415.47 370.03,418.02 368.50,420.67 C362.34,431.34 350.70,448.06 347.41,450.94 ZM 337.31 421.70 C342.50,424.44 344.80,424.50 348.00,422.00 C349.38,420.92 351.29,420.03 352.25,420.02 C353.43,420.01 354.00,419.21 354.00,417.57 C354.00,416.12 355.10,414.28 356.75,412.98 C358.26,411.79 359.56,410.41 359.62,409.91 C359.69,409.41 359.81,408.34 359.88,407.53 C359.94,406.73 361.29,404.59 362.87,402.78 C364.44,400.98 366.05,398.49 366.43,397.25 C366.82,396.01 368.68,393.82 370.57,392.38 C372.46,390.94 374.00,389.23 374.00,388.58 C374.00,387.93 376.02,385.47 378.50,383.11 C380.98,380.75 383.01,378.30 383.01,377.66 C383.03,376.47 393.01,366.71 399.40,361.65 C402.52,359.18 403.00,358.24 403.00,354.55 C403.00,351.06 403.99,348.83 408.57,341.98 C411.64,337.40 415.45,331.08 417.04,327.93 C418.63,324.78 420.96,321.37 422.21,320.35 C423.47,319.33 425.51,316.36 426.74,313.75 C427.97,311.14 429.36,309.00 429.83,309.00 C430.30,309.00 431.93,306.71 433.46,303.90 C434.98,301.10 437.45,297.39 438.93,295.65 C440.42,293.92 442.21,291.07 442.91,289.32 C443.61,287.57 444.75,285.93 445.44,285.66 C446.13,285.40 447.29,283.00 448.03,280.34 C448.77,277.68 450.83,273.02 452.60,269.98 C454.37,266.95 456.15,262.71 456.56,260.55 C456.96,258.40 458.39,255.62 459.73,254.37 C461.35,252.88 462.34,250.64 462.66,247.80 C462.93,245.44 463.62,242.54 464.18,241.37 C464.75,240.20 467.45,232.78 470.18,224.87 C473.82,214.35 475.42,207.95 476.14,201.00 C477.28,190.10 476.68,165.94 475.16,161.50 C474.60,159.85 473.85,155.47 473.49,151.78 C473.05,147.20 472.11,143.96 470.53,141.64 C469.25,139.76 467.65,136.48 466.97,134.36 C464.58,126.89 462.72,123.09 460.39,120.89 C459.09,119.68 457.74,117.06 457.38,115.09 C456.54,110.40 455.42,108.29 451.36,103.75 C449.51,101.68 448.00,99.36 448.00,98.59 C448.00,97.82 445.71,95.27 442.90,92.92 C440.10,90.57 436.06,86.29 433.94,83.41 C430.96,79.38 428.58,77.47 423.61,75.13 C419.87,73.36 416.90,71.26 416.54,70.13 C416.11,68.78 414.33,67.81 410.71,66.96 C407.85,66.28 402.56,63.99 398.96,61.87 C395.36,59.75 390.41,57.61 387.96,57.12 C380.62,55.63 365.83,51.97 360.65,50.36 C354.13,48.33 337.26,48.77 327.72,51.23 C323.75,52.25 317.37,53.75 313.54,54.57 C307.06,55.96 292.71,61.84 281.86,67.56 C279.32,68.90 276.72,70.00 276.10,70.00 C274.07,70.00 263.19,78.01 260.09,81.79 C254.64,88.45 250.57,92.03 246.25,93.97 C242.83,95.51 242.00,96.40 242.00,98.48 C242.00,101.24 238.73,108.43 236.99,109.51 C235.62,110.36 229.61,122.43 228.04,127.50 C227.36,129.70 225.41,132.68 223.72,134.12 C220.79,136.61 220.61,137.20 220.01,146.29 C219.67,151.53 218.90,156.43 218.30,157.17 C217.71,157.90 216.91,161.26 216.53,164.64 C216.14,168.01 215.26,171.87 214.57,173.21 C213.25,175.74 213.26,183.62 214.58,190.50 C215.01,192.70 215.30,195.25 215.25,196.16 C215.19,197.07 216.01,198.60 217.07,199.56 C218.13,200.52 219.00,202.12 219.00,203.12 C219.00,204.12 220.40,206.52 222.10,208.47 L 225.21 212.00 L 235.38 212.00 C247.31,212.00 260.47,213.48 267.50,215.62 C270.25,216.45 275.82,218.03 279.87,219.11 C288.63,221.46 302.18,228.28 310.48,234.51 C313.77,236.98 316.77,239.00 317.14,239.00 C317.51,239.00 320.30,241.02 323.34,243.50 C326.38,245.98 329.33,248.00 329.90,248.00 C330.47,248.00 332.41,249.29 334.22,250.87 C336.02,252.45 339.06,254.08 340.96,254.50 C342.86,254.91 348.12,256.99 352.64,259.12 C361.66,263.37 363.55,263.65 369.50,261.58 C372.57,260.52 374.08,259.14 376.00,255.67 C377.38,253.18 379.47,249.43 380.66,247.32 C381.86,245.22 385.14,241.15 387.97,238.28 C391.72,234.48 393.28,232.04 393.72,229.28 C394.06,227.20 395.38,223.25 396.66,220.50 C397.94,217.75 398.99,214.60 399.01,213.50 C399.03,211.67 400.46,208.79 406.91,197.58 C411.23,190.05 411.89,173.31 407.91,172.27 C406.11,171.80 404.00,167.26 404.00,163.88 C404.00,162.88 402.54,159.31 400.75,155.94 C398.96,152.58 396.88,148.63 396.13,147.16 C395.37,145.70 393.29,142.93 391.50,141.00 C389.71,139.07 387.63,136.15 386.87,134.50 C386.12,132.85 384.07,130.78 382.32,129.91 C380.57,129.04 378.05,127.61 376.72,126.73 C375.38,125.86 372.54,124.82 370.40,124.42 C368.25,124.01 365.07,123.09 363.32,122.36 C359.34,120.70 353.70,120.40 343.74,121.34 C334.14,122.24 318.43,126.15 314.39,128.64 C308.74,132.13 299.90,140.49 297.96,144.19 C296.89,146.22 294.89,149.55 293.51,151.58 C292.13,153.61 290.55,156.96 289.99,159.02 C289.44,161.08 288.31,163.33 287.47,164.02 C286.43,164.89 286.15,166.26 286.56,168.46 C286.97,170.65 286.52,172.86 285.10,175.59 C283.93,177.82 283.11,181.18 283.19,183.35 C283.36,187.92 281.88,189.12 277.01,188.38 C270.64,187.41 267.35,184.05 270.09,181.31 C270.87,180.53 270.78,179.42 269.79,177.36 C268.19,174.04 268.70,168.92 271.93,156.12 C273.17,151.20 275.03,146.57 276.44,144.89 C277.75,143.33 279.13,140.68 279.50,139.02 C279.86,137.35 280.98,135.55 281.97,135.02 C282.96,134.48 285.39,131.81 287.35,129.07 C290.11,125.24 291.85,123.85 294.96,123.01 C297.85,122.23 299.00,121.39 299.00,120.05 C299.00,118.82 300.55,117.43 303.53,115.99 C306.02,114.78 309.87,112.28 312.08,110.43 C314.32,108.56 317.75,106.81 319.80,106.47 C321.84,106.14 324.45,105.49 325.62,105.02 C326.79,104.55 329.94,103.86 332.62,103.50 C335.30,103.14 338.96,102.39 340.74,101.84 C344.38,100.73 356.23,102.16 364.31,104.70 C366.96,105.53 369.36,105.97 369.64,105.69 C370.78,104.55 382.25,111.27 383.81,113.98 C385.75,117.37 389.87,120.00 393.23,120.00 C394.56,120.00 396.71,121.12 398.00,122.50 C399.29,123.88 400.86,125.00 401.48,125.00 C403.03,125.00 412.18,137.36 415.26,143.61 C416.65,146.43 418.10,150.25 418.49,152.11 C418.88,153.98 419.76,156.40 420.45,157.50 C421.57,159.29 423.33,175.80 423.23,183.50 C423.15,188.93 420.01,211.83 418.97,214.59 C418.40,216.07 416.60,218.98 414.97,221.04 C413.18,223.30 412.00,225.97 412.00,227.77 C412.00,229.41 411.29,231.35 410.42,232.07 C409.55,232.79 407.56,235.91 406.00,239.00 C404.44,242.09 402.45,245.21 401.58,245.93 C400.72,246.65 399.09,250.22 397.97,253.87 C396.86,257.52 395.71,261.25 395.43,262.17 C395.13,263.15 396.20,265.30 398.06,267.42 C401.19,270.98 401.25,271.00 409.41,271.00 C414.82,271.00 418.26,271.47 419.51,272.38 C421.33,273.71 421.25,274.00 417.55,279.37 C415.43,282.44 412.97,285.19 412.10,285.46 C411.22,285.74 405.33,285.94 399.00,285.91 C397.78,285.90 396.64,285.90 395.57,285.89 C384.00,285.83 380.69,285.81 378.19,287.22 C376.96,287.92 375.92,288.96 374.19,290.52 C371.42,293.01 368.17,297.09 366.96,299.59 C365.64,302.31 363.29,305.05 361.10,306.44 C359.08,307.71 355.52,311.23 353.19,314.26 C350.85,317.29 347.77,320.61 346.35,321.63 C341.24,325.33 335.48,330.25 334.70,331.61 C334.26,332.38 332.57,333.69 330.95,334.52 C329.33,335.36 326.58,337.61 324.84,339.52 C323.10,341.44 321.12,343.00 320.43,343.00 C319.75,343.00 317.43,344.46 315.28,346.25 C313.14,348.04 307.90,350.82 303.65,352.43 C299.39,354.04 294.30,356.76 292.33,358.46 L 288.75 361.56 L 291.76 367.53 C293.42,370.81 295.79,374.40 297.03,375.50 C298.27,376.60 301.99,380.65 305.31,384.50 C308.63,388.35 312.12,391.81 313.08,392.18 C314.03,392.56 316.26,395.58 318.03,398.90 C319.80,402.23 322.13,405.23 323.22,405.57 C324.30,405.91 325.84,407.61 326.63,409.35 C329.28,415.08 333.07,419.47 337.31,421.70 ZM 217.27 347.11 C234.57,348.13 254.19,347.85 260.00,346.49 C263.02,345.79 269.16,344.96 273.62,344.65 C279.00,344.27 282.89,343.42 285.12,342.14 C286.98,341.07 290.98,339.19 294.00,337.97 C299.58,335.71 310.76,330.63 314.60,328.61 C324.10,323.60 342.58,305.33 346.27,297.28 C347.38,294.86 345.86,292.00 343.47,292.00 C342.70,292.00 342.39,291.24 342.69,290.09 C343.64,286.46 339.71,285.62 320.00,285.18 C310.38,284.97 304.70,284.84 299.02,284.83 C290.49,284.81 281.97,285.06 260.16,285.68 L 258.50 285.72 C223.48,286.72 217.19,286.26 212.82,282.37 C210.29,280.12 206.81,272.79 207.81,271.79 C208.84,270.76 240.70,270.58 276.72,271.39 C311.46,272.18 316.00,271.72 316.00,267.46 C316.00,265.94 316.57,265.00 317.50,265.00 C319.74,265.00 319.37,260.32 316.85,256.79 C315.67,255.13 313.18,253.14 311.33,252.36 C309.47,251.59 306.11,249.16 303.86,246.98 C300.74,243.95 298.96,243.00 296.42,243.00 C294.07,243.00 292.33,242.19 290.56,240.28 C288.93,238.53 286.18,237.15 282.77,236.39 C279.87,235.74 273.00,233.95 267.50,232.40 C258.45,229.86 256.08,229.61 242.50,229.70 C228.24,229.80 218.44,231.15 205.00,234.86 C203.07,235.39 198.91,236.54 195.75,237.40 C189.50,239.11 185.69,240.76 179.50,244.45 C177.30,245.77 174.74,246.88 173.80,246.92 C172.87,246.96 170.93,248.53 169.51,250.40 C168.08,252.27 165.71,254.11 164.25,254.47 C162.79,254.84 160.98,256.01 160.24,257.07 C159.49,258.13 158.27,259.00 157.52,259.00 C156.77,259.00 154.78,260.15 153.11,261.56 C151.43,262.97 147.35,265.19 144.04,266.49 C140.72,267.78 137.30,269.56 136.43,270.42 C135.50,271.36 133.15,272.00 130.65,272.00 C128.34,272.00 125.54,272.63 124.43,273.41 C123.33,274.18 119.57,275.38 116.09,276.06 C111.89,276.89 108.36,278.37 105.62,280.45 L 101.50 283.59 L 100.74 293.05 C100.32,298.25 99.97,302.95 99.95,303.50 C99.83,306.97 103.16,314.65 106.46,318.51 C111.70,324.66 122.00,329.26 122.00,325.46 C122.00,324.61 122.56,323.99 123.25,324.07 C127.33,324.60 129.14,323.75 131.35,320.23 C132.92,317.75 135.66,315.49 139.37,313.61 C142.47,312.04 145.00,310.42 145.00,310.00 C145.00,308.22 151.13,306.81 156.21,307.42 C159.12,307.77 165.21,308.15 169.74,308.28 C177.30,308.48 178.19,308.73 180.52,311.24 C181.92,312.74 184.10,314.24 185.38,314.56 C190.27,315.79 199.75,330.22 199.75,336.44 C199.75,338.30 200.95,340.42 203.39,342.86 C206.99,346.46 207.15,346.51 217.27,347.11 ZM 577.51 381.84 C572.91,384.34 567.00,384.57 562.14,382.46 C560.28,381.66 558.03,381.00 557.14,381.00 C554.76,380.99 544.23,375.56 541.31,372.84 C539.93,371.55 537.98,368.92 536.96,367.00 C535.95,365.08 533.56,361.84 531.66,359.80 C527.04,354.86 524.56,347.28 525.38,340.61 C526.64,330.41 527.95,324.71 529.41,323.10 C530.23,322.20 531.94,318.54 533.20,314.98 C535.67,308.04 537.08,306.76 550.14,299.53 C560.17,293.97 571.68,292.54 579.22,295.91 C581.58,296.96 585.36,298.32 587.64,298.92 C590.43,299.66 592.64,301.15 594.45,303.52 C595.92,305.45 598.64,307.66 600.50,308.44 C607.54,311.38 612.60,323.26 612.45,336.50 C612.26,354.15 603.87,372.14 594.54,374.93 C589.28,376.51 581.65,379.60 577.51,381.84 ZM 559.80 366.60 C564.03,367.20 569.97,367.48 573.00,367.22 C580.27,366.59 588.94,362.41 591.50,358.29 C592.60,356.52 594.81,352.97 596.42,350.40 C600.10,344.49 600.16,339.43 596.63,332.00 C595.20,328.98 594.02,325.93 594.01,325.23 C594.00,324.53 591.67,321.74 588.83,319.02 C584.76,315.14 582.18,313.64 576.69,311.97 L 569.73 309.86 L 563.61 312.03 C558.24,313.94 554.33,315.54 549.00,317.98 C548.17,318.36 546.79,320.78 545.92,323.36 C545.05,325.93 543.13,329.30 541.67,330.83 C538.21,334.43 538.16,339.41 541.50,346.00 C542.88,348.71 544.00,351.68 544.00,352.60 C544.00,354.44 547.42,360.39 550.27,363.50 C551.56,364.91 554.37,365.82 559.80,366.60 ZM 153.01 365.87 C158.40,368.26 169.53,368.66 174.28,366.63 C178.26,364.94 180.80,362.10 184.69,355.00 L 187.70 349.50 L 185.70 342.09 C184.05,335.98 182.90,333.86 179.10,329.95 C172.84,323.51 165.43,321.08 157.28,322.79 C149.47,324.42 144.29,328.21 142.92,333.28 C142.33,335.49 141.20,337.94 140.42,338.72 C138.09,341.05 138.74,347.66 141.96,354.42 C145.39,361.60 146.89,363.15 153.01,365.87 Z" fill="rgb(32,92,203)"/>
<path d="M 348.22 454.25 C346.63,457.97 341.20,458.18 338.98,454.61 C336.97,451.37 330.71,444.04 323.64,436.63 C320.42,433.26 314.36,426.23 310.17,421.00 C305.98,415.77 302.20,411.35 301.77,411.16 C301.33,410.98 299.54,408.73 297.80,406.16 C296.05,403.60 293.91,400.98 293.06,400.34 C292.20,399.71 289.25,396.05 286.50,392.20 C283.75,388.36 280.36,384.44 278.96,383.49 C277.56,382.54 275.45,380.30 274.28,378.51 C273.11,376.72 270.20,373.74 267.82,371.88 L 263.50 368.50 L 199.08 369.50 L 194.79 373.63 C188.64,379.55 182.09,383.97 180.43,383.33 C179.64,383.03 177.09,383.55 174.75,384.48 C168.37,387.04 157.02,386.84 148.75,384.02 C145.04,382.76 141.99,381.45 141.98,381.12 C141.97,380.78 140.05,379.22 137.73,377.65 C133.23,374.62 125.68,364.32 124.61,359.76 C124.26,358.26 122.84,356.29 121.46,355.38 C119.82,354.30 119.14,353.14 119.50,352.01 C120.20,349.79 119.39,349.18 108.15,343.45 C99.57,339.07 89.00,330.45 89.00,327.82 C89.00,327.33 88.12,325.70 87.04,324.21 C85.96,322.72 84.34,319.25 83.42,316.50 C82.51,313.75 81.28,311.19 80.69,310.82 C79.92,310.34 79.94,304.97 80.75,292.09 C82.19,269.16 83.99,264.44 92.50,261.18 C97.42,259.29 115.27,256.21 118.50,256.69 C121.67,257.16 129.00,254.62 129.00,253.05 C129.00,252.54 131.81,250.69 135.25,248.94 C138.69,247.19 143.79,244.12 146.59,242.13 C149.40,240.13 153.79,237.01 156.37,235.19 C162.77,230.65 183.55,220.16 188.72,218.85 C191.04,218.26 193.46,217.15 194.09,216.39 C194.73,215.62 195.91,215.00 196.72,215.00 C197.88,215.00 198.09,213.99 197.69,210.25 C197.00,203.70 195.90,199.63 194.60,198.79 C192.94,197.71 193.09,164.81 194.75,164.25 C195.44,164.02 196.00,162.50 196.00,160.87 C196.00,159.24 196.70,156.55 197.55,154.90 C198.47,153.13 199.03,149.79 198.92,146.70 C198.68,139.93 201.54,130.39 204.60,127.73 C205.92,126.58 207.00,124.93 207.01,124.07 C207.01,123.21 207.68,121.21 208.51,119.64 C209.33,118.06 210.01,116.26 210.03,115.64 C210.04,115.01 211.39,112.73 213.03,110.57 C214.66,108.41 216.00,106.11 216.00,105.45 C216.00,101.89 229.76,82.26 236.99,75.50 C238.76,73.85 240.59,71.51 241.06,70.30 C242.00,67.88 253.09,58.45 262.46,52.10 C266.33,49.48 269.13,48.24 270.46,48.57 C271.84,48.91 273.63,48.02 276.00,45.81 C281.59,40.58 297.74,33.84 302.49,34.75 C304.39,35.12 305.69,34.78 306.46,33.73 C309.18,30.00 338.34,26.79 356.86,28.17 C387.62,30.47 407.31,37.13 432.07,53.62 C442.86,60.81 461.67,78.28 466.38,85.50 C467.82,87.70 470.80,91.97 473.00,95.00 C476.75,100.15 486.80,119.52 490.39,128.50 C491.86,132.18 493.82,138.97 496.07,148.17 C498.10,156.43 500.00,172.55 499.97,181.24 C499.92,194.05 497.38,211.41 493.71,224.00 C492.82,227.02 491.57,231.64 490.92,234.25 C490.27,236.86 489.20,239.00 488.54,239.00 C486.86,239.00 484.61,243.54 485.34,245.46 C485.70,246.37 485.12,247.88 483.98,249.02 C482.89,250.11 481.94,252.01 481.87,253.25 C481.80,254.49 481.58,256.62 481.38,258.00 C479.99,267.59 481.14,268.82 487.68,264.72 C493.66,260.97 509.49,255.83 512.64,256.62 C514.48,257.09 515.65,256.83 516.42,255.78 C517.70,254.03 526.18,252.01 532.30,251.99 C538.25,251.97 541.00,251.04 541.00,249.04 C541.00,246.59 538.56,244.82 530.13,241.13 C522.06,237.60 520.61,236.51 519.56,233.20 C519.18,231.99 518.45,231.00 517.93,231.00 C516.89,231.00 516.69,223.75 517.63,220.24 C518.36,217.52 521.31,216.64 529.64,216.67 C534.90,216.69 537.18,217.37 545.47,221.41 C553.77,225.45 556.47,227.44 564.33,235.31 C573.57,244.57 579.79,254.34 581.99,263.05 C582.47,264.95 583.17,267.51 583.55,268.75 C584.06,270.45 583.83,271.00 582.60,271.00 C581.69,271.00 580.44,272.12 579.82,273.50 C578.72,275.91 578.33,276.00 569.34,276.00 C562.13,276.00 560.00,276.31 560.00,277.36 C560.00,278.26 558.24,278.91 554.75,279.27 C539.57,280.87 523.22,291.45 512.65,306.50 C508.77,312.02 504.00,322.03 504.00,324.63 C504.00,325.24 503.07,326.92 501.93,328.37 L 499.85 331.00 L 443.01 331.00 L 440.01 335.15 C436.67,339.76 436.20,342.48 438.58,343.39 C439.45,343.73 449.35,344.00 460.58,344.00 C473.53,344.00 481.00,344.37 481.00,345.00 C481.00,345.57 484.02,346.00 488.07,346.00 C498.32,346.00 501.79,348.25 503.23,355.85 C503.38,356.62 503.51,357.34 503.64,358.01 C504.77,363.90 505.15,365.88 504.33,366.79 C503.83,367.36 502.87,367.52 501.35,367.95 C496.94,369.20 418.00,369.96 418.00,368.75 C418.00,366.52 414.59,368.63 410.81,373.19 C408.44,376.05 404.85,379.99 402.84,381.94 C400.82,383.90 398.49,387.16 397.66,389.20 C396.83,391.23 394.17,394.83 391.76,397.20 C387.74,401.15 378.62,415.15 378.54,417.50 C378.47,419.22 372.56,426.92 371.28,426.96 C370.61,426.98 367.91,429.78 365.28,433.18 C362.65,436.58 358.00,442.09 354.95,445.43 C351.90,448.77 348.87,452.74 348.22,454.25 ZM 347.41 450.94 C350.70,448.06 362.34,431.34 368.50,420.67 C370.03,418.02 372.23,415.47 373.39,415.02 C376.62,413.77 380.24,409.32 384.43,401.49 C385.02,400.39 387.36,397.57 389.64,395.24 C391.92,392.90 394.55,389.30 395.50,387.24 C396.45,385.18 398.79,382.14 400.71,380.48 C403.47,378.08 404.30,376.52 404.71,372.92 C405.19,368.60 405.45,368.28 410.36,365.99 C415.24,363.72 416.47,363.60 434.50,363.68 C444.95,363.72 463.58,364.04 475.89,364.38 C499.47,365.04 501.97,364.68 499.98,360.96 C499.44,359.95 499.00,357.37 499.00,355.22 L 499.00 355.15 C499.00,353.33 499.00,352.00 498.41,351.03 C496.77,348.33 490.62,348.38 467.45,348.56 L 467.12 348.56 L 438.74 348.78 L 437.65 345.89 C437.05,344.30 435.76,342.74 434.78,342.43 C429.95,340.90 436.59,330.31 443.91,327.84 C446.08,327.11 454.24,326.58 464.50,326.50 C489.32,326.31 493.65,326.49 495.88,324.40 C496.57,323.76 497.05,322.90 497.88,321.75 C499.55,319.41 501.39,316.96 501.96,316.29 C503.49,314.52 503.23,311.57 501.25,308.06 C499.72,305.35 499.68,304.85 500.99,304.02 C501.93,303.43 502.84,303.44 503.44,304.04 C505.26,305.86 506.84,304.99 510.32,300.24 C512.24,297.62 516.36,293.69 519.46,291.49 C522.56,289.30 527.99,285.36 531.51,282.75 C535.03,280.14 538.58,278.00 539.41,278.00 C541.27,278.00 551.67,275.32 553.01,274.50 C553.54,274.16 555.90,273.69 558.24,273.45 C571.52,272.09 572.87,271.80 574.57,269.92 C576.27,268.04 576.26,267.81 574.31,264.23 C573.19,262.18 571.70,257.66 570.99,254.18 C569.80,248.37 569.12,247.26 562.49,240.39 C557.53,235.25 554.14,232.60 551.64,231.91 C549.64,231.36 548.00,230.48 548.00,229.97 C548.00,229.45 546.09,227.81 543.75,226.33 C539.22,223.46 533.28,222.56 529.16,224.13 C527.53,224.75 526.32,224.72 525.64,224.04 C524.11,222.51 523.00,222.77 523.00,224.66 C523.00,227.63 528.02,232.97 533.31,235.64 C541.09,239.56 543.69,241.68 544.86,245.04 C545.83,247.81 545.70,248.16 543.46,249.01 C541.73,249.67 541.00,250.71 541.00,252.50 C541.00,254.34 540.26,255.33 538.33,256.07 C536.86,256.62 535.13,256.88 534.49,256.63 C530.03,254.92 500.42,262.17 492.65,266.86 C487.27,270.12 485.59,270.24 482.52,267.60 C480.97,266.27 479.15,265.39 478.48,265.65 C476.26,266.50 476.15,263.39 478.14,256.40 C479.22,252.60 480.77,247.12 481.59,244.20 C482.42,241.29 483.97,237.46 485.04,235.70 C486.11,233.94 487.00,231.15 487.01,229.50 C487.02,226.28 488.84,219.79 491.40,213.80 C493.98,207.76 495.18,182.47 493.35,172.54 C492.54,168.12 491.92,161.08 491.97,156.90 C492.06,150.55 491.60,148.24 489.21,142.90 C483.38,129.90 482.77,128.07 482.63,123.31 C482.54,119.98 481.87,117.77 480.50,116.30 C479.40,115.12 476.09,109.40 473.14,103.59 C468.17,93.81 464.66,89.39 458.39,84.98 C457.23,84.17 455.95,82.43 455.54,81.12 C454.40,77.54 446.01,70.14 441.74,68.96 C439.02,68.20 437.28,66.82 435.47,63.96 C434.10,61.78 432.41,60.00 431.73,60.00 C430.50,60.00 427.79,57.65 423.15,52.58 C421.72,51.02 419.72,50.00 418.08,50.00 C416.40,50.00 414.32,48.90 412.58,47.08 C410.54,44.96 407.56,43.56 401.64,41.97 C397.16,40.77 392.65,39.33 391.62,38.79 C390.59,38.24 385.86,36.99 381.12,36.02 C376.38,35.05 370.35,33.52 367.72,32.63 C364.31,31.47 359.35,31.00 350.49,31.00 C338.90,31.00 333.03,31.73 314.50,35.50 C310.65,36.28 305.92,37.22 304.00,37.58 C302.08,37.94 299.28,38.86 297.80,39.62 C296.31,40.38 294.24,41.00 293.18,41.00 C292.13,41.00 290.20,41.84 288.88,42.87 C287.57,43.90 285.06,45.05 283.30,45.44 C281.54,45.82 278.44,47.46 276.41,49.07 C274.39,50.68 272.34,52.00 271.87,52.00 C271.39,52.00 269.32,53.49 267.25,55.31 C265.19,57.14 261.48,59.79 259.00,61.21 C256.52,62.63 252.99,65.68 251.14,67.98 C249.28,70.28 245.57,73.75 242.89,75.68 C238.66,78.72 238.09,79.52 238.65,81.74 C239.12,83.63 238.97,84.10 238.05,83.53 C236.72,82.71 228.00,90.53 228.00,92.54 C228.00,93.16 226.65,94.87 225.00,96.34 C223.35,97.81 222.00,99.55 222.00,100.20 C222.00,101.47 217.77,108.15 214.85,111.51 C212.84,113.82 205.80,130.33 203.98,137.00 C202.81,141.29 202.29,144.64 199.82,164.00 C198.37,175.38 198.42,186.01 199.97,194.50 C202.23,206.94 201.91,212.08 198.57,216.91 C195.20,221.76 191.50,224.00 186.85,224.00 C184.61,224.00 182.64,224.92 180.55,226.93 C178.87,228.54 175.20,231.01 172.39,232.42 C169.57,233.82 166.73,235.62 166.07,236.42 C165.40,237.22 163.55,238.16 161.94,238.51 C160.34,238.87 158.75,239.59 158.42,240.13 C158.09,240.67 155.33,242.20 152.30,243.55 C149.26,244.89 145.28,247.30 143.45,248.91 C141.63,250.51 138.56,252.39 136.64,253.09 C134.71,253.78 132.93,255.17 132.66,256.18 C132.35,257.39 131.24,258.01 129.34,258.03 C127.78,258.05 123.35,258.98 119.50,260.11 C115.65,261.24 109.51,262.55 105.85,263.01 C97.34,264.09 91.69,267.01 88.37,272.02 C85.76,275.96 85.74,276.18 85.66,295.25 L 85.59 314.50 L 89.78 323.12 C95.70,335.29 99.97,338.95 114.26,344.06 C119.43,345.91 122.66,349.60 125.05,356.39 C127.56,363.54 130.99,369.06 134.68,371.90 C148.28,382.36 147.99,382.20 155.71,383.28 C167.50,384.94 180.80,381.73 183.10,376.69 C184.41,373.81 198.61,365.32 204.18,364.08 C210.23,362.73 261.24,364.46 266.46,366.19 C269.79,367.29 271.07,368.60 274.46,374.35 C276.68,378.11 279.62,381.78 281.00,382.50 C282.38,383.22 285.51,386.85 287.97,390.56 C290.51,394.40 294.50,398.80 297.22,400.75 C299.85,402.64 302.00,404.64 302.00,405.19 C302.00,407.31 306.34,412.15 309.71,413.79 C312.17,414.99 313.60,416.58 314.44,419.08 C315.10,421.05 317.41,424.45 319.57,426.63 C321.73,428.82 326.09,434.18 329.25,438.55 C332.41,442.92 335.78,447.41 336.75,448.53 C338.26,450.28 342.98,454.00 343.69,454.00 C343.82,454.00 345.50,452.62 347.41,450.94 ZM 337.31 421.70 C333.07,419.47 329.28,415.08 326.63,409.35 C325.84,407.61 324.30,405.91 323.22,405.57 C322.13,405.23 319.80,402.23 318.03,398.90 C316.26,395.58 314.03,392.56 313.08,392.18 C312.12,391.81 308.63,388.35 305.31,384.50 C301.99,380.65 298.27,376.60 297.03,375.50 C295.79,374.40 293.42,370.81 291.76,367.53 L 288.75 361.56 L 292.33 358.46 C294.30,356.76 299.39,354.04 303.65,352.43 C307.90,350.82 313.14,348.04 315.28,346.25 C317.43,344.46 319.75,343.00 320.43,343.00 C321.12,343.00 323.10,341.44 324.84,339.52 C326.58,337.61 329.33,335.36 330.95,334.52 C332.57,333.69 334.26,332.38 334.70,331.61 C335.48,330.25 341.24,325.33 346.35,321.63 C347.77,320.61 350.85,317.29 353.19,314.26 C355.52,311.23 359.08,307.71 361.10,306.44 C363.29,305.05 365.64,302.31 366.96,299.59 C368.17,297.09 371.42,293.01 374.19,290.52 C375.92,288.96 376.96,287.92 378.19,287.22 C380.69,285.81 384.00,285.83 395.57,285.89 C396.64,285.90 397.78,285.90 399.00,285.91 C405.33,285.94 411.22,285.74 412.10,285.46 C412.97,285.19 415.43,282.44 417.55,279.37 C421.25,274.00 421.33,273.71 419.51,272.38 C418.26,271.47 414.82,271.00 409.41,271.00 C401.25,271.00 401.19,270.98 398.06,267.42 C396.20,265.30 395.13,263.15 395.43,262.17 C395.71,261.25 396.86,257.52 397.97,253.87 C399.09,250.22 400.72,246.65 401.58,245.93 C402.45,245.21 404.44,242.09 406.00,239.00 C407.56,235.91 409.55,232.79 410.42,232.07 C411.29,231.35 412.00,229.41 412.00,227.77 C412.00,225.97 413.18,223.30 414.97,221.04 C416.60,218.98 418.40,216.07 418.97,214.59 C420.01,211.83 423.15,188.93 423.23,183.50 C423.33,175.80 421.57,159.29 420.45,157.50 C419.76,156.40 418.88,153.98 418.49,152.11 C418.10,150.25 416.65,146.43 415.26,143.61 C412.18,137.36 403.03,125.00 401.48,125.00 C400.86,125.00 399.29,123.88 398.00,122.50 C396.71,121.12 394.56,120.00 393.23,120.00 C389.87,120.00 385.75,117.37 383.81,113.98 C382.25,111.27 370.78,104.55 369.64,105.69 C369.36,105.97 366.96,105.53 364.31,104.70 C356.23,102.16 344.38,100.73 340.74,101.84 C338.96,102.39 335.30,103.14 332.62,103.50 C329.94,103.86 326.79,104.55 325.62,105.02 C324.45,105.49 321.84,106.14 319.80,106.47 C317.75,106.81 314.32,108.56 312.08,110.43 C309.87,112.28 306.02,114.78 303.53,115.99 C300.55,117.43 299.00,118.82 299.00,120.05 C299.00,121.39 297.85,122.23 294.96,123.01 C291.85,123.85 290.11,125.24 287.35,129.07 C285.39,131.81 282.96,134.48 281.97,135.02 C280.98,135.55 279.86,137.35 279.50,139.02 C279.13,140.68 277.75,143.33 276.44,144.89 C275.03,146.57 273.17,151.20 271.93,156.12 C268.70,168.92 268.19,174.04 269.79,177.36 C270.78,179.42 270.87,180.53 270.09,181.31 C267.35,184.05 270.64,187.41 277.01,188.38 C281.88,189.12 283.36,187.92 283.19,183.35 C283.11,181.18 283.93,177.82 285.10,175.59 C286.52,172.86 286.97,170.65 286.56,168.46 C286.15,166.26 286.43,164.89 287.47,164.02 C288.31,163.33 289.44,161.08 289.99,159.02 C290.55,156.96 292.13,153.61 293.51,151.58 C294.89,149.55 296.89,146.22 297.96,144.19 C299.90,140.49 308.74,132.13 314.39,128.64 C318.43,126.15 334.14,122.24 343.74,121.34 C353.70,120.40 359.34,120.70 363.32,122.36 C365.07,123.09 368.25,124.01 370.40,124.42 C372.54,124.82 375.38,125.86 376.72,126.73 C378.05,127.61 380.57,129.04 382.32,129.91 C384.07,130.78 386.12,132.85 386.87,134.50 C387.63,136.15 389.71,139.07 391.50,141.00 C393.29,142.93 395.37,145.70 396.13,147.16 C396.88,148.63 398.96,152.58 400.75,155.94 C402.54,159.31 404.00,162.88 404.00,163.88 C404.00,167.26 406.11,171.80 407.91,172.27 C411.89,173.31 411.23,190.05 406.91,197.58 C400.46,208.79 399.03,211.67 399.01,213.50 C398.99,214.60 397.94,217.75 396.66,220.50 C395.38,223.25 394.06,227.20 393.72,229.28 C393.28,232.04 391.72,234.48 387.97,238.28 C385.14,241.15 381.86,245.22 380.66,247.32 C379.47,249.43 377.38,253.18 376.00,255.67 C374.08,259.14 372.57,260.52 369.50,261.58 C363.55,263.65 361.66,263.37 352.64,259.12 C348.12,256.99 342.86,254.91 340.96,254.50 C339.06,254.08 336.02,252.45 334.22,250.87 C332.41,249.29 330.47,248.00 329.90,248.00 C329.33,248.00 326.38,245.98 323.34,243.50 C320.30,241.02 317.51,239.00 317.14,239.00 C316.77,239.00 313.77,236.98 310.48,234.51 C302.18,228.28 288.63,221.46 279.87,219.11 C275.82,218.03 270.25,216.45 267.50,215.62 C260.47,213.48 247.31,212.00 235.38,212.00 L 225.21 212.00 L 222.10 208.47 C220.40,206.52 219.00,204.12 219.00,203.12 C219.00,202.12 218.13,200.52 217.07,199.56 C216.01,198.60 215.19,197.07 215.25,196.16 C215.30,195.25 215.01,192.70 214.58,190.50 C213.26,183.62 213.25,175.74 214.57,173.21 C215.26,171.87 216.14,168.01 216.53,164.64 C216.91,161.26 217.71,157.90 218.30,157.17 C218.90,156.43 219.67,151.53 220.01,146.29 C220.61,137.20 220.79,136.61 223.72,134.12 C225.41,132.68 227.36,129.70 228.04,127.50 C229.61,122.43 235.62,110.36 236.99,109.51 C238.73,108.43 242.00,101.24 242.00,98.48 C242.00,96.40 242.83,95.51 246.25,93.97 C250.57,92.03 254.64,88.45 260.09,81.79 C263.19,78.01 274.07,70.00 276.10,70.00 C276.72,70.00 279.32,68.90 281.86,67.56 C292.71,61.84 307.06,55.96 313.54,54.57 C317.37,53.75 323.75,52.25 327.72,51.23 C337.26,48.77 354.13,48.33 360.65,50.36 C365.83,51.97 380.62,55.63 387.96,57.12 C390.41,57.61 395.36,59.75 398.96,61.87 C402.56,63.99 407.85,66.28 410.71,66.96 C414.33,67.81 416.11,68.78 416.54,70.13 C416.90,71.26 419.87,73.36 423.61,75.13 C428.58,77.47 430.96,79.38 433.94,83.41 C436.06,86.29 440.10,90.57 442.90,92.92 C445.71,95.27 448.00,97.82 448.00,98.59 C448.00,99.36 449.51,101.68 451.36,103.75 C455.42,108.29 456.54,110.40 457.38,115.09 C457.74,117.06 459.09,119.68 460.39,120.89 C462.72,123.09 464.58,126.89 466.97,134.36 C467.65,136.48 469.25,139.76 470.53,141.64 C472.11,143.96 473.05,147.20 473.49,151.78 C473.85,155.47 474.60,159.85 475.16,161.50 C476.68,165.94 477.28,190.10 476.14,201.00 C475.42,207.95 473.82,214.35 470.18,224.87 C467.45,232.78 464.75,240.20 464.18,241.37 C463.62,242.54 462.93,245.44 462.66,247.80 C462.34,250.64 461.35,252.88 459.73,254.37 C458.39,255.62 456.96,258.40 456.56,260.55 C456.15,262.71 454.37,266.95 452.60,269.98 C450.83,273.02 448.77,277.68 448.03,280.34 C447.29,283.00 446.13,285.40 445.44,285.66 C444.75,285.93 443.61,287.57 442.91,289.32 C442.21,291.07 440.42,293.92 438.93,295.65 C437.45,297.39 434.98,301.10 433.46,303.90 C431.93,306.71 430.30,309.00 429.83,309.00 C429.36,309.00 427.97,311.14 426.74,313.75 C425.51,316.36 423.47,319.33 422.21,320.35 C420.96,321.37 418.63,324.78 417.04,327.93 C415.45,331.08 411.64,337.40 408.57,341.98 C403.99,348.83 403.00,351.06 403.00,354.55 C403.00,358.24 402.52,359.18 399.40,361.65 C393.01,366.71 383.03,376.47 383.01,377.66 C383.01,378.30 380.98,380.75 378.50,383.11 C376.02,385.47 374.00,387.93 374.00,388.58 C374.00,389.23 372.46,390.94 370.57,392.38 C368.68,393.82 366.82,396.01 366.43,397.25 C366.05,398.49 364.44,400.98 362.87,402.78 C361.29,404.59 359.94,406.73 359.88,407.53 C359.81,408.34 359.69,409.41 359.62,409.91 C359.56,410.41 358.26,411.79 356.75,412.98 C355.10,414.28 354.00,416.12 354.00,417.57 C354.00,419.21 353.43,420.01 352.25,420.02 C351.29,420.03 349.38,420.92 348.00,422.00 C344.80,424.50 342.50,424.44 337.31,421.70 ZM 335.31 411.35 C339.06,415.56 342.44,418.99 342.81,418.97 C344.34,418.90 346.99,415.91 357.01,403.00 C362.78,395.58 369.10,387.70 371.06,385.50 C374.31,381.86 379.12,375.22 393.50,354.51 C396.25,350.55 401.55,343.08 405.28,337.90 C411.21,329.69 429.00,303.12 429.00,302.49 C429.00,302.36 431.98,297.14 435.63,290.88 C444.49,275.67 459.86,242.12 464.22,228.50 C467.77,217.39 469.14,210.95 470.99,196.68 C474.06,172.94 469.20,144.72 458.47,124.00 C456.91,120.97 455.74,117.46 455.89,116.19 C456.18,113.66 454.27,110.30 449.58,105.09 C440.60,95.12 420.73,78.84 408.50,71.43 C402.31,67.67 387.36,61.20 380.57,59.33 C360.72,53.87 335.95,53.75 312.50,59.00 C306.88,60.26 289.07,67.79 283.57,71.23 C260.63,85.58 245.57,101.67 234.29,123.87 C228.26,135.73 225.92,143.07 223.38,158.00 C220.40,175.55 221.59,205.31 225.37,207.76 C225.99,208.17 233.02,208.55 241.00,208.61 C257.03,208.74 268.06,210.21 270.86,212.61 C273.15,214.58 283.87,218.99 286.35,219.00 C287.37,219.00 290.52,220.17 293.35,221.61 C296.18,223.04 299.91,224.35 301.62,224.52 C303.48,224.70 309.98,228.24 317.62,233.22 C346.68,252.17 363.62,260.95 367.62,259.13 C371.24,257.48 375.87,249.96 389.00,224.42 C396.00,210.80 398.23,205.38 400.03,197.60 C406.79,168.33 395.55,142.91 370.58,131.06 C361.67,126.83 356.03,125.59 345.50,125.59 C331.64,125.58 318.89,130.50 308.95,139.70 C299.54,148.42 294.02,158.10 292.39,168.75 C292.03,171.11 291.19,173.00 290.51,173.00 C289.81,173.00 289.02,174.87 288.68,177.31 C288.04,181.98 288.70,186.00 290.12,186.00 C291.71,186.00 291.04,189.65 289.02,191.97 C285.51,196.03 272.49,195.17 265.22,190.41 C262.84,188.85 262.80,188.58 263.15,177.37 C263.39,169.99 263.94,165.66 264.70,165.19 C267.09,163.71 268.95,158.77 267.86,156.75 C266.07,153.38 276.93,133.52 285.82,123.93 C294.56,114.50 308.95,105.07 319.50,101.85 C332.43,97.90 348.02,97.04 361.97,99.49 C375.59,101.89 380.62,103.88 392.57,111.59 C399.34,115.97 416.31,133.75 415.57,135.69 C415.03,137.10 420.48,150.96 421.99,152.00 C422.39,152.27 423.25,154.15 423.90,156.16 C424.56,158.18 425.67,160.04 426.37,160.31 C427.16,160.61 428.17,164.70 428.99,170.90 C431.01,186.21 428.34,203.10 421.42,218.79 C418.47,225.47 408.51,245.32 403.74,254.02 C396.83,266.61 397.46,267.61 412.00,267.09 C419.19,266.84 425.68,268.65 426.31,271.09 C426.89,273.31 421.00,282.56 417.13,285.50 C414.79,287.28 412.81,287.52 399.40,287.66 C380.84,287.85 376.46,289.28 370.68,297.02 C368.66,299.73 367.00,302.25 367.00,302.62 C367.00,303.44 361.42,310.35 354.01,318.71 C350.98,322.13 347.15,326.60 345.50,328.65 C342.61,332.23 328.08,343.68 325.00,344.79 C324.17,345.09 321.57,346.64 319.21,348.24 C316.85,349.84 310.81,353.25 305.78,355.83 C300.75,358.40 296.17,361.26 295.61,362.18 C294.25,364.44 295.83,367.25 302.88,375.12 C305.97,378.58 313.00,386.42 318.50,392.55 C324.00,398.68 331.57,407.14 335.31,411.35 ZM 217.27 347.11 C207.15,346.51 206.99,346.46 203.39,342.86 C200.95,340.42 199.75,338.30 199.75,336.44 C199.75,330.22 190.27,315.79 185.38,314.56 C184.10,314.24 181.92,312.74 180.52,311.24 C178.19,308.73 177.30,308.48 169.74,308.28 C165.21,308.15 159.12,307.77 156.21,307.42 C151.13,306.81 145.00,308.22 145.00,310.00 C145.00,310.42 142.47,312.04 139.37,313.61 C135.66,315.49 132.92,317.75 131.35,320.23 C129.14,323.75 127.33,324.60 123.25,324.07 C122.56,323.99 122.00,324.61 122.00,325.46 C122.00,329.26 111.70,324.66 106.46,318.51 C103.16,314.65 99.83,306.97 99.95,303.50 C99.97,302.95 100.32,298.25 100.74,293.05 L 101.50 283.59 L 105.62 280.45 C108.36,278.37 111.89,276.89 116.09,276.06 C119.57,275.38 123.33,274.18 124.43,273.41 C125.54,272.63 128.34,272.00 130.65,272.00 C133.15,272.00 135.50,271.36 136.43,270.42 C137.30,269.56 140.72,267.78 144.04,266.49 C147.35,265.19 151.43,262.97 153.11,261.56 C154.78,260.15 156.77,259.00 157.52,259.00 C158.27,259.00 159.49,258.13 160.24,257.07 C160.98,256.01 162.79,254.84 164.25,254.47 C165.71,254.11 168.08,252.27 169.51,250.40 C170.93,248.53 172.87,246.96 173.80,246.92 C174.74,246.88 177.30,245.77 179.50,244.45 C185.69,240.76 189.50,239.11 195.75,237.40 C198.91,236.54 203.07,235.39 205.00,234.86 C218.44,231.15 228.24,229.80 242.50,229.70 C256.08,229.61 258.45,229.86 267.50,232.40 C273.00,233.95 279.87,235.74 282.77,236.39 C286.18,237.15 288.93,238.53 290.56,240.28 C292.33,242.19 294.07,243.00 296.42,243.00 C298.96,243.00 300.74,243.95 303.86,246.98 C306.11,249.16 309.47,251.59 311.33,252.36 C313.18,253.14 315.67,255.13 316.85,256.79 C319.37,260.32 319.74,265.00 317.50,265.00 C316.57,265.00 316.00,265.94 316.00,267.46 C316.00,271.72 311.46,272.18 276.72,271.39 C240.70,270.58 208.84,270.76 207.81,271.79 C206.81,272.79 210.29,280.12 212.82,282.37 C217.19,286.26 223.48,286.72 258.50,285.72 L 260.16 285.68 L 260.17 285.68 C281.97,285.06 290.49,284.81 299.02,284.83 C304.70,284.84 310.38,284.97 320.00,285.18 C339.71,285.62 343.64,286.46 342.69,290.09 C342.39,291.24 342.70,292.00 343.47,292.00 C345.86,292.00 347.38,294.86 346.27,297.28 C342.58,305.33 324.10,323.60 314.60,328.61 C310.76,330.63 299.58,335.71 294.00,337.97 C290.98,339.19 286.98,341.07 285.12,342.14 C282.89,343.42 279.00,344.27 273.62,344.65 C269.16,344.96 263.02,345.79 260.00,346.49 C254.19,347.85 234.57,348.13 217.27,347.11 ZM 230.50 343.31 C242.05,343.47 252.85,343.45 254.50,343.27 C256.15,343.08 261.77,342.51 267.00,342.00 C284.39,340.30 299.80,333.31 319.08,318.37 C327.50,311.85 342.02,296.40 341.97,294.03 C341.87,289.53 335.07,286.29 328.75,287.73 C326.41,288.26 303.15,288.79 277.00,288.91 C248.49,289.04 229.37,289.50 229.17,290.06 C228.72,291.32 225.00,291.27 225.00,290.00 C225.00,289.45 223.99,288.99 222.75,288.98 C219.71,288.95 212.90,285.74 210.75,283.31 C208.06,280.29 204.09,271.92 204.65,270.46 C204.93,269.74 205.91,268.86 206.83,268.49 C207.75,268.13 231.00,267.39 258.50,266.86 C286.00,266.33 309.51,265.69 310.75,265.43 C314.27,264.70 313.44,261.79 308.56,257.71 C306.12,255.67 303.82,254.00 303.45,254.00 C303.08,254.00 299.56,252.00 295.64,249.56 C285.41,243.21 271.54,236.87 264.53,235.36 C239.30,229.92 206.26,235.33 181.40,248.97 C178.17,250.74 172.46,254.06 168.73,256.35 C164.99,258.63 159.59,261.93 156.72,263.68 C141.38,273.03 132.90,276.80 120.00,280.02 C111.83,282.06 108.10,282.88 106.41,285.19 C104.99,287.13 105.00,290.12 105.02,295.75 C105.02,296.10 105.02,296.45 105.02,296.82 C105.06,310.17 105.92,312.60 112.96,319.25 C116.31,322.41 119.69,325.00 120.46,325.00 C121.23,325.00 124.23,322.28 127.11,318.96 C139.91,304.25 154.14,298.83 170.72,302.35 C174.70,303.19 179.60,304.66 181.61,305.62 C191.92,310.51 204.73,327.90 202.17,333.52 C202.08,333.73 201.99,333.93 201.90,334.11 C201.32,335.36 201.05,335.96 201.15,336.49 C201.25,337.04 201.76,337.52 202.75,338.60 C206.39,342.57 208.90,343.00 230.50,343.31 ZM 589.93 383.28 C583.39,386.49 581.14,387.07 573.43,387.50 C565.78,387.93 563.36,387.64 556.54,385.50 C546.18,382.23 538.93,377.80 532.84,371.00 C526.55,363.99 523.37,357.46 521.51,347.71 C519.00,334.59 522.07,320.13 529.51,309.98 C533.84,304.09 543.32,296.64 550.72,293.33 C558.58,289.80 573.13,288.94 582.24,291.47 C602.94,297.20 617.19,314.98 618.72,337.00 C619.17,343.43 618.85,345.64 616.49,352.50 C611.44,367.17 603.15,376.78 589.93,383.28 ZM 577.51 381.84 C581.65,379.60 589.28,376.51 594.54,374.93 C603.87,372.14 612.26,354.15 612.45,336.50 C612.60,323.26 607.54,311.38 600.50,308.44 C598.64,307.66 595.92,305.45 594.45,303.52 C592.64,301.15 590.43,299.66 587.64,298.92 C585.36,298.32 581.58,296.96 579.22,295.91 C571.68,292.54 560.17,293.97 550.14,299.53 C537.08,306.76 535.67,308.04 533.20,314.98 C531.94,318.54 530.23,322.20 529.41,323.10 C527.95,324.71 526.64,330.41 525.38,340.61 C524.56,347.28 527.04,354.86 531.66,359.80 C533.56,361.84 535.95,365.08 536.96,367.00 C537.98,368.92 539.93,371.55 541.31,372.84 C544.23,375.56 554.76,380.99 557.14,381.00 C558.03,381.00 560.28,381.66 562.14,382.46 C567.00,384.57 572.91,384.34 577.51,381.84 ZM 559.80 366.60 C554.37,365.82 551.56,364.91 550.27,363.50 C547.42,360.39 544.00,354.44 544.00,352.60 C544.00,351.68 542.88,348.71 541.50,346.00 C538.16,339.41 538.21,334.43 541.67,330.83 C543.13,329.30 545.05,325.93 545.92,323.36 C546.79,320.78 548.17,318.36 549.00,317.98 C554.33,315.54 558.24,313.94 563.61,312.03 L 569.73 309.86 L 576.69 311.97 C582.18,313.64 584.76,315.14 588.83,319.02 C591.67,321.74 594.00,324.53 594.01,325.23 C594.02,325.93 595.20,328.98 596.63,332.00 C600.16,339.43 600.10,344.49 596.42,350.40 C594.81,352.97 592.60,356.52 591.50,358.29 C588.94,362.41 580.27,366.59 573.00,367.22 C569.97,367.48 564.03,367.20 559.80,366.60 ZM 559.50 361.13 C571.22,366.48 586.64,360.24 591.74,348.08 C593.63,343.55 593.48,333.42 591.45,328.46 C587.62,319.17 581.27,315.50 569.00,315.50 C561.52,315.50 560.02,315.81 556.48,318.12 C549.94,322.38 546.82,327.80 546.24,335.91 C545.97,339.71 546.05,344.48 546.43,346.50 C547.30,351.10 554.02,358.63 559.50,361.13 ZM 153.01 365.87 C146.89,363.15 145.39,361.60 141.96,354.42 C138.74,347.66 138.09,341.05 140.42,338.72 C141.20,337.94 142.33,335.49 142.92,333.28 C144.29,328.21 149.47,324.42 157.28,322.79 C165.43,321.08 172.84,323.51 179.10,329.95 C182.90,333.86 184.05,335.98 185.70,342.09 L 187.70 349.50 L 184.69 355.00 C180.80,362.10 178.26,364.94 174.28,366.63 C169.53,368.66 158.40,368.26 153.01,365.87 ZM 155.72 362.56 C163.63,365.39 170.48,363.64 175.95,357.40 C187.80,343.91 175.80,323.12 158.42,327.02 C149.16,329.09 144.00,335.54 144.00,345.01 C144.00,353.22 148.53,360.00 155.72,362.56 Z" fill="rgb(38,90,184)"/>
<path d="M 335.92 302.24 C339.52,298.11 341.95,294.68 341.78,293.50 C341.50,291.53 340.64,291.50 277.42,291.24 L 213.33 290.99 L 211.23 288.74 C208.02,285.32 200.85,271.04 201.20,268.74 C201.50,266.73 202.06,266.70 255.12,266.46 C268.76,266.40 281.46,266.28 291.28,266.13 C282.23,266.37 270.76,266.63 258.50,266.86 C231.00,267.39 207.75,268.13 206.83,268.49 C205.91,268.86 204.93,269.74 204.65,270.46 C204.09,271.92 208.06,280.29 210.75,283.31 C212.90,285.74 219.71,288.95 222.75,288.98 C223.99,288.99 225.00,289.45 225.00,290.00 C225.00,291.27 228.72,291.32 229.17,290.06 C229.37,289.50 248.49,289.04 277.00,288.91 C303.15,288.79 326.41,288.26 328.75,287.73 C335.07,286.29 341.87,289.53 341.97,294.03 C341.99,295.02 339.47,298.29 335.92,302.24 ZM 348.22 454.25 C348.87,452.74 351.90,448.77 354.95,445.43 C358.00,442.09 362.65,436.58 365.28,433.18 C367.91,429.78 370.61,426.98 371.28,426.96 C371.89,426.94 373.53,425.21 375.10,423.20 C373.64,425.17 372.35,426.92 371.29,428.37 C368.42,432.29 361.67,441.35 356.29,448.50 C350.90,455.64 345.76,461.63 344.85,461.80 C342.43,462.25 337.54,457.06 316.46,431.61 C287.87,397.09 264.20,370.29 261.72,369.62 C260.51,369.30 246.48,369.03 230.39,369.01 L 263.50 368.50 L 267.82 371.88 C270.20,373.74 273.11,376.72 274.28,378.51 C275.45,380.30 277.56,382.54 278.96,383.49 C280.36,384.44 283.75,388.36 286.50,392.20 C289.25,396.05 292.20,399.71 293.06,400.34 C293.91,400.98 296.05,403.60 297.80,406.16 C299.54,408.73 301.33,410.98 301.77,411.16 C302.20,411.35 305.98,415.77 310.17,421.00 C314.36,426.23 320.42,433.26 323.64,436.63 C330.71,444.04 336.97,451.37 338.98,454.61 C341.20,458.18 346.63,457.97 348.22,454.25 ZM 333.83 338.81 C338.67,335.08 343.89,330.64 345.50,328.65 C347.15,326.60 350.98,322.13 354.01,318.71 C361.42,310.35 367.00,303.44 367.00,302.62 C367.00,302.25 368.66,299.73 370.68,297.02 C376.46,289.28 380.84,287.85 399.40,287.66 C412.81,287.52 414.79,287.28 417.13,285.50 C421.00,282.56 426.89,273.31 426.31,271.09 C425.68,268.65 419.19,266.84 412.00,267.09 C402.14,267.44 398.68,267.10 399.62,262.91 C399.57,263.51 399.75,263.86 400.10,264.09 C400.87,264.57 407.49,264.98 414.82,264.98 C429.40,265.00 432.49,265.81 431.43,269.31 C430.51,272.36 422.73,284.04 419.87,286.68 C415.85,290.39 412.46,291.00 396.01,291.00 L 380.14 291.00 L 369.67 303.75 C359.17,316.53 354.28,321.65 343.96,330.73 C341.34,333.03 337.45,336.10 333.83,338.81 ZM 185.77 381.04 C184.99,381.61 184.27,382.12 183.63,382.54 C161.27,397.39 129.98,385.09 120.56,357.75 L 118.43 351.57 L 109.01 346.79 C96.94,340.69 88.43,332.55 83.47,322.38 C79.49,314.22 79.24,310.54 81.03,287.09 C81.73,277.82 82.47,271.97 84.51,268.01 C82.44,272.39 81.54,279.49 80.75,292.09 C79.94,304.97 79.92,310.34 80.69,310.82 C81.28,311.19 82.51,313.75 83.42,316.50 C84.34,319.25 85.96,322.72 87.04,324.21 C88.12,325.70 89.00,327.33 89.00,327.82 C89.00,330.45 99.57,339.07 108.15,343.45 C119.39,349.18 120.20,349.79 119.50,352.01 C119.14,353.14 119.82,354.30 121.46,355.38 C122.84,356.29 124.26,358.26 124.61,359.76 C125.68,364.32 133.23,374.62 137.73,377.65 C140.05,379.22 141.97,380.78 141.98,381.12 C141.99,381.45 145.04,382.76 148.75,384.02 C157.02,386.84 168.37,387.04 174.75,384.48 C177.09,383.55 179.64,383.03 180.43,383.33 C181.24,383.65 183.23,382.74 185.77,381.04 ZM 250.65 60.97 C245.58,65.12 241.60,68.90 241.06,70.30 C240.59,71.51 238.76,73.85 236.99,75.50 C229.76,82.26 216.00,101.89 216.00,105.45 C216.00,106.11 214.66,108.41 213.03,110.57 C211.39,112.73 210.04,115.01 210.03,115.64 C210.01,116.26 209.33,118.06 208.51,119.64 C207.68,121.21 207.01,123.21 207.01,124.07 C207.00,124.93 205.92,126.58 204.60,127.73 C201.54,130.39 198.68,139.93 198.92,146.70 C199.03,149.79 198.47,153.13 197.55,154.90 C196.70,156.55 196.00,159.24 196.00,160.87 C196.00,162.50 195.44,164.02 194.75,164.25 C193.09,164.81 192.94,197.71 194.60,198.79 C195.90,199.63 197.00,203.70 197.69,210.25 C198.09,213.99 197.88,215.00 196.72,215.00 C196.06,215.00 195.17,215.41 194.51,215.97 C195.61,214.45 195.60,212.21 194.99,208.45 C193.23,197.61 192.72,176.84 193.90,164.00 C195.00,152.06 195.80,148.21 198.53,141.50 C199.20,139.85 200.53,135.80 201.47,132.50 C203.61,125.03 210.57,108.83 213.93,103.50 C215.32,101.30 217.05,98.38 217.79,97.00 C221.96,89.27 237.26,72.01 247.50,63.50 C248.46,62.70 249.52,61.85 250.65,60.97 ZM 376.35 421.53 C377.56,419.81 378.51,418.18 378.54,417.50 C378.62,415.15 387.74,401.15 391.76,397.20 C394.17,394.83 396.83,391.23 397.66,389.20 C398.49,387.16 400.82,383.90 402.84,381.94 C404.85,379.99 408.44,376.05 410.81,373.19 C414.59,368.63 418.00,366.52 418.00,368.75 C418.00,369.04 422.55,369.22 429.52,369.30 C423.01,369.48 419.16,369.75 418.20,370.08 C416.32,370.74 412.96,373.80 409.70,377.83 C404.83,383.85 386.99,407.27 376.35,421.53 ZM 347.98 251.81 C340.08,247.46 329.94,241.26 317.62,233.22 C309.98,228.24 303.48,224.70 301.62,224.52 C299.91,224.35 296.18,223.04 293.35,221.61 C290.52,220.17 287.37,219.00 286.35,219.00 C283.87,218.99 273.15,214.58 270.86,212.61 C268.06,210.21 257.03,208.74 241.00,208.61 C236.75,208.58 232.76,208.46 229.87,208.28 C232.55,208.44 236.17,208.54 240.00,208.55 C256.90,208.62 269.92,210.39 281.50,214.18 C293.27,218.03 298.72,220.88 316.08,232.21 C329.22,240.79 339.83,247.31 347.98,251.81 ZM 274.51 193.97 C280.57,195.16 286.76,194.58 289.02,191.97 C291.04,189.65 291.71,186.00 290.12,186.00 C288.70,186.00 288.04,181.98 288.68,177.31 C289.02,174.87 289.81,173.00 290.51,173.00 C290.98,173.00 291.52,172.12 291.93,170.81 C291.14,175.55 291.00,180.47 291.39,186.38 C292.17,198.50 291.65,199.51 285.68,197.35 C283.38,196.52 278.46,195.03 274.75,194.03 C274.67,194.01 274.59,193.99 274.51,193.97 ZM 429.04 191.21 C429.86,184.30 429.85,177.45 428.99,170.90 C428.17,164.70 427.16,160.61 426.37,160.31 C425.67,160.04 424.56,158.18 423.90,156.16 C423.25,154.15 422.39,152.27 421.99,152.00 C420.48,150.96 415.03,137.10 415.57,135.69 C416.03,134.49 409.71,127.22 403.21,120.82 C409.80,126.88 415.56,133.38 418.59,138.56 C427.06,153.02 431.19,173.01 429.20,189.96 C429.15,190.38 429.10,190.79 429.04,191.21 ZM 547.59 280.66 C549.99,279.99 552.38,279.52 554.75,279.27 C558.24,278.91 560.00,278.26 560.00,277.36 C560.00,276.31 562.13,276.00 569.34,276.00 C578.33,276.00 578.72,275.91 579.82,273.50 C580.44,272.12 581.69,271.00 582.60,271.00 C582.88,271.00 583.12,270.97 583.30,270.90 C583.35,271.60 583.38,272.30 583.40,273.00 L 583.50 278.50 L 575.00 278.19 C566.01,277.87 554.70,278.93 547.59,280.66 ZM 427.57 85.12 C436.15,91.99 444.56,99.52 449.58,105.09 C454.27,110.30 456.18,113.66 455.89,116.19 C455.74,117.46 456.91,120.97 458.47,124.00 C460.85,128.59 462.94,133.55 464.72,138.75 C456.88,117.23 444.04,99.20 427.57,85.12 ZM 503.99 359.86 C503.89,359.29 503.77,358.67 503.64,358.01 C503.51,357.34 503.38,356.62 503.23,355.85 C501.79,348.25 498.32,346.00 488.07,346.00 C484.02,346.00 481.00,345.57 481.00,345.00 C481.00,344.37 473.53,344.00 460.58,344.00 C449.35,344.00 439.45,343.73 438.58,343.39 C439.45,343.73 453.57,344.00 469.96,344.00 C492.60,344.00 500.00,344.30 500.75,345.25 C501.30,345.94 502.28,349.65 502.92,353.50 C503.27,355.60 503.66,357.91 503.99,359.86 ZM 480.90 262.19 C480.98,261.03 481.14,259.63 481.38,258.00 C481.58,256.62 481.80,254.49 481.87,253.25 C481.94,252.01 482.89,250.11 483.98,249.02 C485.12,247.88 485.70,246.37 485.34,245.46 C484.61,243.54 486.86,239.00 488.54,239.00 C489.20,239.00 490.27,236.86 490.92,234.25 C491.19,233.15 491.58,231.68 491.99,230.14 C491.82,232.59 488.33,243.83 486.98,246.24 C486.44,247.19 486.00,248.51 486.00,249.16 C486.00,249.81 484.59,253.39 482.87,257.12 C481.96,259.11 481.30,260.80 480.90,262.19 ZM 98.18 259.61 C100.19,259.11 102.45,258.63 105.00,258.12 C118.85,255.35 128.37,252.44 136.66,248.20 C136.17,248.46 135.70,248.71 135.25,248.94 C131.81,250.69 129.00,252.54 129.00,253.05 C129.00,254.62 121.67,257.16 118.50,256.69 C116.08,256.33 105.43,257.97 98.18,259.61 ZM 535.38 217.25 C533.55,216.81 531.86,216.68 529.64,216.67 C521.54,216.64 518.53,217.47 517.70,220.01 C518.03,217.52 518.33,215.67 518.48,215.25 C519.27,213.09 526.53,214.15 535.38,217.25 ZM 517.03 225.49 C516.98,228.36 517.31,231.00 517.93,231.00 C518.45,231.00 519.18,231.99 519.56,233.20 C520.61,236.51 522.06,237.60 530.13,241.13 C532.46,242.15 534.34,243.02 535.83,243.81 C530.95,241.31 522.86,238.00 521.15,238.00 C520.14,238.00 518.58,237.19 517.68,236.20 C516.26,234.63 516.17,233.24 517.03,225.49 ZM 207.12 341.65 C205.20,340.98 204.05,340.02 202.75,338.60 C201.76,337.52 201.25,337.04 201.15,336.49 C201.05,335.96 201.32,335.36 201.90,334.11 C201.99,333.93 202.08,333.73 202.17,333.52 C202.79,332.17 202.51,330.13 201.59,327.75 C203.04,330.74 204.21,333.79 204.94,336.63 C205.48,338.70 206.41,340.82 207.12,341.65 ZM 268.56 151.83 C267.73,154.18 267.43,155.94 267.86,156.75 C268.95,158.77 267.09,163.71 264.70,165.19 C263.94,165.66 263.39,169.99 263.15,177.37 C263.10,179.19 263.05,180.73 263.02,182.03 C263.02,181.47 263.02,180.87 263.02,180.23 C263.05,167.34 263.86,162.05 268.56,151.83 ZM 285.87 39.64 C281.85,41.57 278.15,43.80 276.00,45.81 C273.63,48.02 271.84,48.91 270.46,48.57 C269.45,48.32 267.57,48.99 265.01,50.49 C269.30,47.56 273.06,45.19 275.00,44.29 C277.46,43.14 281.54,41.40 285.87,39.64 ZM 488.35 264.31 C495.70,259.93 509.45,255.53 521.80,253.42 C519.11,254.12 517.00,254.98 516.42,255.78 C515.65,256.83 514.48,257.09 512.64,256.62 C509.60,255.86 494.77,260.61 488.35,264.31 ZM 352.10 27.92 C333.72,27.32 308.96,30.31 306.46,33.73 C305.69,34.78 304.39,35.12 302.49,34.75 C301.05,34.48 298.58,34.90 295.66,35.77 C296.67,35.39 297.63,35.04 298.50,34.72 C311.53,29.98 333.77,27.23 352.10,27.92 ZM 277.91 134.28 C284.21,124.34 291.07,117.54 300.46,111.58 C295.00,115.30 289.82,119.62 285.82,123.93 C283.23,126.73 280.47,130.40 277.91,134.28 ZM 398.25 160.33 C401.08,167.76 402.33,176.01 401.87,184.78 C401.92,182.66 401.87,180.48 401.74,178.17 C401.37,171.61 400.23,165.71 398.25,160.33 ZM 292.69 167.05 C293.82,161.19 296.16,155.62 299.70,150.36 C297.89,153.12 296.38,156.02 295.23,159.00 C294.16,161.78 293.32,164.42 292.69,167.05 ZM 479.29 368.95 C487.90,368.77 495.08,368.53 498.80,368.25 C495.01,368.70 488.92,368.88 479.29,368.95 ZM 399.12 66.62 C402.86,68.35 406.26,70.07 408.50,71.43 C409.99,72.33 411.60,73.37 413.29,74.51 C408.75,71.59 404.01,68.95 399.12,66.62 ZM 199.48 369.49 L 194.51 373.99 C193.94,374.51 193.29,375.07 192.60,375.66 C193.33,375.01 194.06,374.33 194.79,373.63 L 199.08 369.50 ZM 471.50 172.05 C472.11,179.97 472.02,187.85 471.16,195.30 C471.92,187.45 472.03,179.68 471.50,172.05 ZM 386.47 107.82 C378.43,103.12 373.03,101.44 361.97,99.49 C361.15,99.35 360.34,99.22 359.51,99.10 C368.99,100.38 377.87,102.87 383.93,106.30 C384.76,106.77 385.61,107.28 386.47,107.82 ZM 345.42 55.15 C334.55,55.37 322.84,56.68 312.50,59.00 C323.39,56.56 334.58,55.28 345.42,55.15 ZM 398.70 202.60 C396.99,208.23 394.43,213.86 389.00,224.42 C393.55,215.57 396.67,208.70 398.70,202.60 ZM 230.50 343.31 C221.72,343.18 216.09,343.04 212.26,342.64 C216.17,342.94 222.24,343.16 230.08,343.28 C241.86,343.46 252.85,343.45 254.50,343.27 C255.05,343.20 256.05,343.10 257.32,342.97 C256.05,343.10 255.05,343.20 254.50,343.27 C252.85,343.45 242.05,343.47 230.50,343.31 ZM 532.89 287.26 C525.21,292.14 517.94,298.96 512.65,306.50 C518.15,298.66 525.23,292.04 532.89,287.26 ZM 540.02 250.72 C538.88,251.48 536.73,251.88 533.48,251.97 C537.13,251.55 539.04,251.20 540.02,250.72 ZM 364.92 128.62 C366.70,129.29 368.56,130.10 370.58,131.06 C373.44,132.41 376.12,133.95 378.61,135.65 C374.49,132.97 369.46,130.40 364.92,128.62 ZM 386.44 61.30 C380.90,59.29 376.09,58.09 368.94,56.82 C372.96,57.47 376.85,58.31 380.57,59.33 C382.16,59.77 384.18,60.45 386.44,61.30 ZM 578.89 254.85 C575.72,248.44 570.75,241.75 564.33,235.31 C564.14,235.12 563.96,234.94 563.78,234.76 C563.98,234.96 564.18,235.16 564.38,235.36 C570.94,241.94 575.75,248.38 578.89,254.85 ZM 468.88 210.60 C467.73,216.72 466.38,221.75 464.22,228.50 C466.13,222.52 467.69,216.55 468.88,210.60 ZM 310.26 138.53 C314.11,135.19 318.36,132.47 322.90,130.39 C318.37,132.53 314.09,135.29 310.26,138.53 ZM 340.26 125.82 C341.98,125.67 343.73,125.59 345.50,125.59 C348.08,125.59 350.37,125.66 352.48,125.84 C348.53,125.55 344.14,125.55 340.26,125.82 ZM 495.19 218.40 C496.48,213.10 497.56,207.29 498.37,201.50 C497.53,207.61 496.42,213.58 495.19,218.40 ZM 389.54 33.39 C404.21,37.37 417.18,43.71 432.07,53.62 C417.23,43.74 404.21,37.39 389.54,33.39 ZM 343.98 98.14 C340.24,98.21 336.50,98.49 332.85,98.98 C336.36,98.46 340.12,98.18 343.98,98.14 ZM 178.65 304.49 C176.33,303.72 173.33,302.90 170.72,302.35 C173.89,303.02 176.43,303.68 178.65,304.49 ZM 195.19 317.31 C193.89,315.71 192.49,314.15 191.03,312.69 C192.43,314.00 193.84,315.57 195.19,317.31 ZM 486.97 265.16 C485.17,266.24 483.83,266.85 482.87,266.93 C483.90,266.74 485.27,266.15 486.97,265.16 ZM 540.07 246.74 C540.73,247.49 541.00,248.23 541.00,249.04 C541.00,249.05 541.00,249.06 541.00,249.08 C540.99,248.39 540.61,247.49 540.07,246.74 ZM 324.53 345.00 C324.72,344.91 324.88,344.84 325.00,344.79 C325.19,344.72 325.44,344.61 325.72,344.46 C325.13,344.81 324.72,345.00 324.55,345.00 ZM 551.11 224.34 C549.59,223.47 547.91,222.60 545.90,221.62 C546.23,221.78 546.56,221.94 546.88,222.10 C548.44,222.86 549.82,223.59 551.11,224.34 ZM 312.36 264.72 C312.91,264.17 313.03,263.44 312.71,262.55 C313.06,263.47 312.94,264.20 312.36,264.72 ZM 504.77 365.26 C504.77,364.82 504.73,364.28 504.64,363.62 C504.75,364.24 504.81,364.78 504.77,365.26 ZM 171.97 226.34 C178.95,222.77 185.98,219.54 188.69,218.86 C185.95,219.56 178.93,222.78 171.97,226.34 ZM 316.96 102.71 C315.91,103.11 314.83,103.55 313.74,104.04 C314.82,103.54 315.88,103.11 316.96,102.71 ZM 402.97 255.43 C403.21,254.98 403.47,254.51 403.74,254.02 C403.91,253.71 404.08,253.39 404.26,253.06 C404.02,253.51 403.78,253.94 403.56,254.35 C403.35,254.73 403.16,255.09 402.97,255.43 ZM 265.35 190.49 C265.50,190.59 265.66,190.69 265.82,190.78 C265.70,190.72 265.59,190.65 265.50,190.59 C265.45,190.56 265.40,190.53 265.35,190.49 Z" fill="rgb(57,95,174)"/>
<path d="M 480.90 262.19 C481.30,260.80 481.96,259.11 482.87,257.12 C483.63,255.48 484.33,253.86 484.87,252.51 C484.17,254.85 483.70,256.90 483.84,257.39 C483.98,257.88 483.66,259.53 483.13,261.04 C482.26,263.55 482.41,263.85 484.84,264.31 C486.19,264.57 488.26,264.24 489.66,263.57 C489.20,263.82 488.77,264.06 488.35,264.31 L 488.35 264.31 C488.12,264.45 487.89,264.58 487.68,264.72 C487.43,264.87 487.20,265.02 486.97,265.16 C485.27,266.15 483.90,266.74 482.87,266.93 C481.22,267.06 480.68,265.60 480.90,262.19 ZM 522.83 253.17 C522.48,253.25 522.13,253.33 521.80,253.42 C517.20,254.21 512.40,255.31 507.82,256.61 C511.88,255.31 515.54,254.27 517.50,253.94 C518.88,253.71 520.82,253.43 522.83,253.17 ZM 487.03 246.50 C486.69,247.25 486.34,248.15 486.00,249.09 C486.03,248.42 486.46,247.16 486.98,246.24 C487.51,245.29 488.38,242.97 489.24,240.35 C488.44,242.86 487.62,245.18 487.03,246.50 ZM 490.21 263.28 C490.37,263.19 490.55,263.10 490.74,263.00 C490.56,263.09 490.38,263.19 490.21,263.28 Z" fill="rgb(223,225,232)"/>
<path d="M 0.00 251.00 L 0.00 0.00 L 1044.00 0.00 L 2088.00 0.00 L 2088.00 251.00 L 2088.00 502.00 L 1044.00 502.00 L 0.00 502.00 L 0.00 251.00 ZM 356.29 448.50 C361.67,441.35 368.42,432.29 371.29,428.37 C379.89,416.59 403.93,384.97 409.70,377.83 C412.96,373.80 416.32,370.74 418.20,370.08 C420.21,369.38 434.83,369.00 460.00,369.00 C503.47,369.00 505.54,368.75 504.64,363.62 C504.34,361.90 503.57,357.35 502.92,353.50 C502.28,349.65 501.30,345.94 500.75,345.25 C500.00,344.30 492.60,344.00 469.96,344.00 C453.57,344.00 439.45,343.73 438.58,343.39 C436.20,342.48 436.67,339.76 440.01,335.15 L 443.01 331.00 L 471.43 331.00 L 499.85 331.00 L 501.93 328.37 C503.07,326.92 504.00,325.24 504.00,324.63 C504.00,322.03 508.77,312.02 512.65,306.50 C520.62,295.15 533.05,285.44 544.64,281.50 C551.18,279.28 564.63,277.82 575.00,278.19 L 583.50 278.50 L 583.40 273.00 C583.15,260.18 577.01,248.01 564.38,235.36 C557.03,228.00 553.64,225.43 546.88,222.10 C533.67,215.58 519.59,212.19 518.48,215.25 C518.24,215.94 517.58,220.53 517.04,225.45 C516.17,233.23 516.26,234.63 517.68,236.20 C518.58,237.19 520.14,238.00 521.15,238.00 C523.42,238.00 536.87,243.82 539.25,245.83 C540.21,246.64 541.00,248.12 541.00,249.11 C541.00,251.02 539.75,251.36 528.50,252.50 C525.20,252.83 520.25,253.48 517.50,253.94 C512.17,254.83 494.16,261.02 490.00,263.39 C488.62,264.18 486.30,264.59 484.84,264.31 C482.41,263.85 482.26,263.55 483.13,261.04 C483.66,259.53 483.98,257.88 483.84,257.39 C483.58,256.47 485.47,250.00 487.03,246.50 C488.64,242.87 492.00,231.70 492.00,229.96 C492.00,229.02 492.70,226.28 493.56,223.88 C496.93,214.42 499.92,194.53 499.97,181.24 C500.00,172.55 498.10,156.43 496.07,148.17 C493.82,138.97 491.86,132.18 490.39,128.50 C486.80,119.52 476.75,100.15 473.00,95.00 C470.80,91.97 467.82,87.70 466.38,85.50 C461.67,78.28 442.86,60.81 432.07,53.62 C407.30,37.13 387.84,30.54 357.00,28.20 C337.89,26.74 312.71,29.55 298.50,34.72 C291.65,37.21 279.98,41.96 275.00,44.29 C270.38,46.44 255.57,56.79 247.50,63.50 C237.26,72.01 221.96,89.27 217.79,97.00 C217.05,98.38 215.32,101.30 213.93,103.50 C210.57,108.83 203.61,125.03 201.47,132.50 C200.53,135.80 199.20,139.85 198.53,141.50 C195.80,148.21 195.00,152.06 193.90,164.00 C192.72,176.84 193.23,197.61 194.99,208.45 C196.15,215.54 195.13,217.22 188.69,218.86 C183.54,220.16 162.75,230.67 156.37,235.19 C153.79,237.01 149.40,240.13 146.59,242.13 C135.55,249.99 124.62,254.19 105.00,258.12 C84.67,262.19 82.75,264.51 81.03,287.09 C79.24,310.54 79.49,314.22 83.47,322.38 C88.43,332.55 96.94,340.69 109.01,346.79 L 118.43 351.57 L 120.56 357.75 C129.98,385.09 161.27,397.39 183.63,382.54 C186.59,380.58 191.48,376.73 194.51,373.99 L 200.02 369.00 L 229.76 369.01 C246.12,369.02 260.50,369.29 261.72,369.62 C264.20,370.29 287.87,397.09 316.46,431.61 C337.54,457.06 342.43,462.25 344.85,461.80 C345.76,461.63 350.90,455.64 356.29,448.50 ZM 589.93 383.28 C603.15,376.78 611.44,367.17 616.49,352.50 C618.85,345.64 619.17,343.43 618.72,337.00 C617.19,314.98 602.94,297.20 582.24,291.47 C573.13,288.94 558.58,289.80 550.72,293.33 C543.32,296.64 533.84,304.09 529.51,309.98 C522.07,320.13 519.00,334.59 521.51,347.71 C523.37,357.46 526.55,363.99 532.84,371.00 C538.93,377.80 546.18,382.23 556.54,385.50 C563.36,387.64 565.78,387.93 573.43,387.50 C581.14,387.07 583.39,386.49 589.93,383.28 ZM 1052.50 366.02 C1070.75,361.68 1076.32,359.43 1088.00,351.69 C1101.23,342.93 1105.83,334.48 1101.31,327.21 C1095.16,317.34 1089.42,313.00 1082.49,313.00 C1078.81,313.00 1077.02,313.84 1068.50,319.54 C1056.45,327.61 1045.09,331.00 1030.11,331.00 C1022.60,331.00 1009.96,329.02 1005.50,327.15 C987.15,319.44 973.77,304.94 971.42,290.21 L 970.75 286.02 L 1037.70 286.15 C1110.49,286.29 1108.13,286.46 1112.41,280.68 C1114.13,278.35 1114.56,276.08 1114.86,267.68 C1115.98,235.95 1100.64,206.58 1074.08,189.55 C1065.48,184.04 1059.99,181.77 1047.26,178.46 C1039.10,176.34 1035.55,176.00 1021.73,176.00 C1005.01,176.00 1003.31,176.28 987.13,181.69 C973.05,186.39 959.70,195.67 948.76,208.36 C938.68,220.04 933.62,229.69 929.82,244.50 C927.80,252.33 927.51,255.83 927.55,271.50 C927.60,286.66 927.95,290.84 929.80,298.00 C934.58,316.56 941.61,328.75 954.37,340.60 C970.81,355.87 992.03,365.44 1016.00,368.39 C1023.23,369.27 1044.67,367.88 1052.50,366.02 ZM 1577.82 367.96 C1594.88,365.19 1609.93,358.03 1621.24,347.31 C1624.40,344.32 1627.44,342.15 1627.99,342.50 C1628.55,342.84 1629.01,345.00 1629.03,347.31 C1629.07,353.76 1632.74,360.07 1638.01,362.75 C1645.56,366.60 1663.07,365.58 1666.80,361.07 C1667.52,360.21 1668.98,357.70 1670.03,355.50 C1671.88,351.66 1671.96,348.36 1671.98,271.96 L 1672.00 192.42 L 1669.75 188.02 C1666.48,181.62 1663.66,179.97 1654.81,179.30 C1650.67,178.99 1645.19,179.04 1642.64,179.43 C1634.21,180.69 1629.00,187.43 1629.00,197.06 C1629.00,199.71 1628.63,202.11 1628.17,202.39 C1627.71,202.68 1624.90,200.41 1621.92,197.36 C1614.16,189.42 1606.20,184.48 1595.00,180.65 C1583.37,176.67 1579.06,176.00 1565.04,176.00 C1550.28,176.00 1541.56,177.65 1527.86,183.06 C1511.41,189.54 1493.76,206.29 1483.64,225.03 C1471.49,247.54 1469.08,280.19 1477.68,305.97 C1486.90,333.60 1509.01,355.23 1537.54,364.54 C1550.82,368.88 1564.83,370.07 1577.82,367.96 ZM 1938.43 366.29 C1953.05,362.93 1961.30,358.68 1973.65,348.13 C1977.75,344.63 1981.24,341.93 1981.41,342.13 C1982.93,343.90 1984.00,347.57 1984.00,350.98 C1984.00,360.71 1990.41,365.03 2004.74,364.95 C2015.39,364.89 2019.48,363.20 2022.71,357.50 L 2024.99 353.50 L 2024.74 271.32 C2024.50,190.08 2024.48,189.11 2022.44,186.38 C2017.88,180.28 2015.79,179.50 2004.18,179.54 C1988.43,179.59 1984.79,182.06 1983.52,193.57 C1982.47,203.03 1981.91,203.31 1975.79,197.38 C1965.93,187.85 1959.80,184.16 1946.80,179.93 C1934.83,176.05 1934.50,176.00 1919.20,176.00 C1905.01,176.00 1902.87,176.25 1893.43,178.97 C1860.49,188.49 1835.42,215.71 1828.03,250.00 C1826.11,258.87 1825.55,279.13 1826.96,288.83 C1829.58,306.99 1837.55,324.66 1848.89,337.48 C1870.66,362.09 1906.48,373.61 1938.43,366.29 ZM 1445.50 365.97 C1448.25,365.29 1450.93,364.34 1451.45,363.86 C1451.97,363.39 1453.12,363.00 1454.00,363.00 C1454.88,363.00 1457.37,361.18 1459.55,358.95 C1463.42,354.99 1463.50,354.76 1463.47,347.70 C1463.44,339.83 1461.38,334.54 1456.63,330.10 C1454.18,327.82 1453.68,327.75 1446.28,328.54 C1442.00,329.00 1435.05,329.40 1430.83,329.43 C1423.86,329.49 1422.76,329.21 1418.83,326.46 C1416.45,324.80 1413.04,321.26 1411.25,318.61 L 1408.00 313.77 L 1408.00 265.39 L 1408.00 217.00 L 1427.60 217.00 C1450.03,217.00 1451.57,216.56 1454.99,209.30 C1457.16,204.67 1457.87,191.65 1456.00,190.50 C1455.45,190.16 1455.00,189.09 1455.00,188.13 C1455.00,187.16 1453.74,185.17 1452.21,183.70 C1448.35,180.01 1441.32,178.85 1424.46,179.14 C1416.74,179.27 1409.87,179.04 1409.21,178.63 C1408.33,178.09 1408.00,172.61 1408.00,158.65 C1408.00,140.70 1407.85,139.13 1405.75,134.96 C1402.33,128.19 1398.89,126.85 1385.82,127.21 C1376.88,127.45 1374.69,127.84 1372.38,129.56 C1365.15,134.96 1364.06,139.04 1364.02,160.55 C1364.01,171.67 1363.63,176.97 1362.80,177.80 C1362.07,178.53 1358.45,179.01 1353.55,179.02 C1342.45,179.05 1337.66,181.26 1334.84,187.63 C1333.14,191.47 1332.84,193.74 1333.21,200.08 C1333.98,213.38 1338.14,216.99 1352.69,217.00 C1358.94,217.00 1362.14,217.40 1362.69,218.25 C1363.14,218.94 1363.77,242.45 1364.11,270.50 C1364.72,321.97 1364.82,323.35 1368.46,332.50 C1376.12,351.75 1388.00,361.76 1409.00,366.65 C1415.67,368.20 1438.22,367.78 1445.50,365.97 ZM 901.21 364.76 C908.58,360.62 912.94,348.69 910.82,338.47 C909.52,332.22 906.49,328.95 897.96,324.62 C889.63,320.39 877.77,311.67 872.48,305.89 C862.62,295.12 849.00,274.34 849.00,270.07 C849.00,268.74 850.43,267.76 854.20,266.53 C864.98,263.00 881.06,253.20 886.50,246.83 C895.03,236.85 900.42,227.13 904.13,215.00 C906.13,208.45 906.42,205.35 906.44,190.50 C906.46,175.68 906.17,172.59 904.23,166.39 C897.20,143.98 884.17,128.95 863.50,119.41 C846.21,111.43 835.18,109.51 807.00,109.56 C781.93,109.61 769.89,111.62 755.00,118.24 C740.73,124.59 728.67,135.80 722.59,148.38 C718.31,157.23 717.38,160.10 714.96,172.00 C713.13,180.96 713.02,186.38 713.01,267.27 L 713.00 353.04 L 715.58 356.95 C719.49,362.86 723.72,364.50 735.00,364.50 C746.21,364.50 750.73,362.77 754.23,357.14 L 756.50 353.50 L 757.02 267.00 C757.50,186.04 757.65,180.18 759.38,175.50 C762.39,167.37 764.58,163.74 769.17,159.32 C778.63,150.18 788.75,147.51 811.19,148.27 C831.69,148.95 841.31,151.76 849.99,159.61 C861.17,169.71 865.66,186.36 861.50,202.32 C859.37,210.52 856.67,215.30 850.98,220.92 C842.79,229.03 836.10,231.73 819.92,233.48 C806.86,234.89 803.95,236.22 800.94,242.11 C797.92,248.04 798.45,260.94 802.07,269.50 C802.53,270.60 804.11,274.42 805.57,278.00 C817.44,306.98 838.06,336.23 857.84,352.15 C874.04,365.18 891.46,370.24 901.21,364.76 ZM 1176.52 363.42 C1180.30,361.85 1182.50,359.45 1184.46,354.75 C1185.77,351.62 1186.00,344.41 1186.01,307.28 C1186.02,257.26 1186.69,248.18 1191.01,239.70 C1199.37,223.29 1211.62,216.04 1231.04,216.01 C1249.46,215.99 1262.61,222.58 1270.03,235.55 C1275.90,245.82 1276.01,246.95 1276.58,301.50 C1276.89,332.05 1277.50,352.78 1278.14,354.80 C1280.30,361.60 1286.90,365.14 1297.64,365.25 C1308.33,365.36 1313.60,363.55 1316.84,358.67 L 1319.50 354.65 L 1319.79 302.07 C1320.06,251.87 1319.98,249.03 1317.96,239.13 C1316.80,233.42 1315.38,227.57 1314.81,226.13 C1308.43,209.96 1298.14,197.49 1282.70,187.20 C1280.06,185.44 1277.27,184.00 1276.51,184.00 C1275.74,184.00 1274.87,183.60 1274.57,183.12 C1274.27,182.64 1273.01,182.00 1271.76,181.71 C1270.52,181.42 1265.22,179.97 1260.00,178.49 C1251.41,176.06 1248.92,175.80 1234.00,175.82 C1219.54,175.83 1216.31,176.15 1207.88,178.38 C1192.17,182.54 1183.51,186.56 1172.89,194.63 C1164.23,201.22 1152.78,215.63 1150.76,222.50 C1150.43,223.60 1149.21,226.98 1148.05,230.00 C1143.23,242.49 1143.00,245.78 1143.00,301.82 C1143.01,352.30 1143.09,354.63 1144.96,357.70 C1146.03,359.46 1148.39,361.69 1150.21,362.66 C1156.36,365.93 1169.57,366.32 1176.52,363.42 ZM 1740.36 363.75 C1743.10,362.95 1745.00,361.45 1746.86,358.63 C1749.90,354.05 1749.56,359.53 1750.98,292.50 C1751.92,248.36 1752.22,245.29 1756.41,236.72 C1759.02,231.39 1767.03,223.52 1772.19,221.24 C1778.78,218.33 1788.38,216.91 1799.51,217.22 C1808.62,217.48 1809.78,217.30 1812.41,215.24 C1817.08,211.58 1818.27,208.33 1818.77,197.88 C1819.35,185.47 1817.92,182.03 1810.61,178.25 C1805.73,175.72 1804.83,175.61 1790.50,175.68 C1776.63,175.75 1774.64,176.00 1764.04,179.06 C1749.51,183.25 1739.07,189.04 1730.36,197.75 C1722.59,205.53 1718.36,211.86 1714.50,221.50 C1707.88,238.07 1707.07,246.70 1707.03,301.11 C1707.01,328.10 1707.42,348.93 1708.02,352.11 C1709.29,358.82 1712.94,362.74 1719.65,364.61 C1724.85,366.07 1733.74,365.70 1740.36,363.75 ZM 335.31 411.35 C331.57,407.14 324.00,398.68 318.50,392.55 C313.00,386.42 305.97,378.58 302.88,375.12 C295.83,367.25 294.25,364.44 295.61,362.18 C296.17,361.26 300.75,358.40 305.78,355.83 C310.81,353.25 316.93,349.77 319.39,348.08 C321.85,346.38 324.17,345.00 324.55,345.00 C325.71,345.00 338.07,335.91 343.96,330.73 C354.28,321.65 359.17,316.53 369.67,303.75 L 380.14 291.00 L 396.01 291.00 C412.46,291.00 415.85,290.39 419.87,286.68 C422.73,284.04 430.51,272.36 431.43,269.31 C432.49,265.81 429.40,265.00 414.82,264.98 C407.49,264.98 400.87,264.57 400.10,264.09 C398.98,263.37 399.66,261.47 403.56,254.35 C408.48,245.36 418.43,225.55 421.42,218.79 C425.07,210.51 428.11,199.27 429.20,189.96 C431.19,173.01 427.06,153.02 418.59,138.56 C412.69,128.49 396.48,113.40 383.93,106.30 C371.45,99.24 347.02,96.14 330.00,99.47 C317.03,102.00 314.38,103.06 301.82,110.73 C288.49,118.88 280.20,128.41 271.67,145.41 C264.19,160.32 263.06,164.90 263.02,180.23 C263.00,188.44 263.15,189.05 265.50,190.59 C266.87,191.49 271.03,193.04 274.75,194.03 C278.46,195.03 283.38,196.52 285.68,197.35 C291.65,199.51 292.17,198.50 291.39,186.38 C290.68,175.59 291.74,168.07 295.23,159.00 C301.16,143.62 316.66,130.54 333.46,126.73 C339.34,125.39 350.37,125.25 357.50,126.41 C364.70,127.58 377.82,134.14 383.90,139.60 C395.18,149.74 400.83,161.96 401.74,178.17 C402.60,193.44 399.91,203.20 389.00,224.42 C375.87,249.96 371.24,257.48 367.62,259.13 C363.54,260.99 346.65,252.17 316.08,232.21 C298.72,220.88 293.27,218.03 281.50,214.18 C269.92,210.39 256.90,208.62 240.00,208.55 C232.57,208.52 225.99,208.17 225.37,207.76 C221.59,205.31 220.40,175.55 223.38,158.00 C225.92,143.07 228.26,135.73 234.29,123.87 C245.57,101.67 260.63,85.58 283.57,71.23 C289.07,67.79 306.88,60.26 312.50,59.00 C330.38,54.99 352.32,53.98 367.00,56.48 C378.64,58.47 384.15,60.08 394.57,64.56 C426.74,78.37 452.53,105.30 464.17,137.22 C474.37,165.17 474.38,196.73 464.22,228.50 C459.86,242.12 444.49,275.67 435.63,290.88 C431.98,297.14 429.00,302.36 429.00,302.49 C429.00,303.12 411.21,329.69 405.28,337.90 C401.55,343.08 396.25,350.55 393.50,354.51 C379.12,375.22 374.31,381.86 371.06,385.50 C369.10,387.70 362.78,395.58 357.01,403.00 C346.99,415.91 344.34,418.90 342.81,418.97 C342.44,418.99 339.06,415.56 335.31,411.35 ZM 155.72 362.56 C148.53,360.00 144.00,353.22 144.00,345.01 C144.00,335.54 149.16,329.09 158.42,327.02 C175.80,323.12 187.80,343.91 175.95,357.40 C170.48,363.64 163.63,365.39 155.72,362.56 ZM 230.08 343.28 C216.48,343.08 208.17,342.56 207.34,341.86 C206.61,341.26 205.53,338.91 204.94,336.63 C202.77,328.23 196.86,318.09 190.97,312.63 C184.17,306.34 180.33,304.39 170.72,302.35 C154.14,298.83 139.91,304.25 127.11,318.96 C124.23,322.28 121.23,325.00 120.46,325.00 C119.69,325.00 116.31,322.41 112.96,319.25 C105.92,312.60 105.06,310.17 105.02,296.82 C104.99,283.39 104.56,283.87 120.00,280.02 C132.90,276.80 141.38,273.03 156.72,263.68 C159.59,261.93 164.99,258.63 168.73,256.35 C172.46,254.06 178.17,250.74 181.40,248.97 C206.26,235.33 239.30,229.92 264.53,235.36 C271.54,236.87 285.41,243.21 295.64,249.56 C299.56,252.00 303.08,254.00 303.45,254.00 C303.82,254.00 306.12,255.67 308.56,257.71 C313.40,261.75 314.20,264.48 310.87,265.54 C309.69,265.91 284.61,266.33 255.12,266.46 C202.06,266.70 201.50,266.73 201.20,268.74 C200.85,271.04 208.02,285.32 211.23,288.74 L 213.33 290.99 L 277.42 291.24 C340.64,291.50 341.50,291.53 341.78,293.50 C342.17,296.21 328.85,310.80 319.08,318.37 C299.80,333.31 284.39,340.30 267.00,342.00 C261.77,342.51 256.15,343.08 254.50,343.27 C252.85,343.45 241.86,343.46 230.08,343.28 ZM 559.50 361.13 C554.02,358.63 547.30,351.10 546.43,346.50 C546.05,344.48 545.97,339.71 546.24,335.91 C546.82,327.80 549.94,322.38 556.48,318.12 C560.02,315.81 561.52,315.50 569.00,315.50 C581.27,315.50 587.62,319.17 591.45,328.46 C593.48,333.42 593.63,343.55 591.74,348.08 C586.64,360.24 571.22,366.48 559.50,361.13 ZM 972.36 253.49 C970.69,249.15 976.53,235.97 983.61,228.09 C988.73,222.40 995.68,218.11 1004.72,215.08 C1013.20,212.24 1031.17,212.13 1039.14,214.88 C1047.95,217.91 1052.17,220.46 1057.72,226.09 C1065.85,234.36 1073.61,250.99 1070.69,253.91 C1069.93,254.67 1054.73,255.00 1021.27,255.00 C979.12,255.00 972.86,254.81 972.36,253.49 ZM 1559.00 328.34 C1557.62,328.07 1552.75,326.06 1548.16,323.86 C1532.94,316.56 1521.45,301.49 1518.00,284.33 C1516.23,275.52 1517.13,260.06 1519.88,252.16 C1524.41,239.13 1534.60,226.78 1544.78,221.96 C1557.00,216.18 1577.82,214.80 1590.50,218.91 C1609.67,225.14 1622.74,240.89 1626.40,262.20 C1630.90,288.39 1618.81,312.27 1595.00,324.23 L 1586.50 328.50 L 1574.00 328.66 C1567.12,328.75 1560.38,328.60 1559.00,328.34 ZM 1914.50 328.30 C1897.13,324.23 1882.69,313.08 1875.90,298.50 C1869.92,285.65 1868.48,266.49 1872.49,253.22 C1875.74,242.51 1885.64,229.57 1895.00,223.82 C1904.89,217.75 1921.05,214.96 1934.52,217.00 C1958.43,220.63 1973.81,235.13 1979.43,259.34 C1981.34,267.61 1981.36,273.07 1979.51,283.46 C1975.68,304.95 1959.96,322.13 1939.17,327.54 C1933.96,328.90 1919.02,329.36 1914.50,328.30 Z" fill="rgb(254,254,254)"/>
</g>
</svg>